<svg width="94" height="17" viewBox="0 0 94 17" fill="none" xmlns="http://www.w3.org/2000/svg">
<path d="M15.1627 15.032H0V8.35732L7.58133 13.6826L15.1627 8.35732V15.032Z" fill="#E3A715"/>
<path d="M4.904 10.6746C11.5173 9.47731 15.1653 6.21864 15.1653 6.21864C15.1653 6.21864 10.7787 8.30664 1.92 8.57864L4.904 10.6746ZM7.584 12.5573L10.408 10.5733C9.12 10.84 7.57067 11.0933 5.75733 11.2746L7.584 12.5573ZM0 0.239975V1.88264C4.26133 1.88264 7.704 1.28797 10.2267 0.239975H0ZM0 2.71997V4.77064C9.69333 4.77064 15.1627 0.327971 15.1627 0.327971C15.1627 0.327971 10.1467 2.71997 0 2.71997ZM0 7.22931L0.965333 7.85597C9.94667 7.50664 15.1627 3.27197 15.1627 3.27197C15.1627 3.27197 10.1467 5.6613 0 5.6613V7.22931Z" fill="#1F1E21"/>
<path d="M26.2586 0.23465C25.8373 0.56265 25.7653 1.03198 25.7653 1.51198V7.16264C25.7653 7.64264 25.8373 8.11198 26.2586 8.43998H23.0453C23.4666 8.11198 23.5386 7.64264 23.5386 7.16264V1.40531H21.3813V7.16264C21.3813 7.64264 21.4533 8.11198 21.8746 8.43998H18.6613C19.0826 8.11198 19.1546 7.64264 19.1546 7.16264V1.51198C19.1546 1.02931 19.0853 0.559983 18.6613 0.23465H26.2613H26.2586Z" fill="#1F1E21"/>
<path d="M31.024 0.23465C32.512 0.23465 33.5333 1.17064 33.5333 2.46131C33.5333 4.26664 31.8453 5.11198 30.0506 4.92265C30.8586 4.55998 31.248 3.91465 31.248 3.02398C31.248 1.86398 30.6266 1.46398 30.0506 1.46398H29.9333V7.16264C29.9333 7.64264 30.0026 8.11198 30.4266 8.43998H27.2133C27.6346 8.11198 27.7066 7.64264 27.7066 7.16264V1.51198C27.7066 1.02931 27.6373 0.559983 27.2133 0.23465H31.0266H31.024Z" fill="#1F1E21"/>
<path d="M38.8667 0C41.6346 0 43.3226 1.82933 43.3226 4.29067C43.3226 6.752 41.5973 8.67733 38.712 8.67733C35.616 8.67733 34.256 6.48533 34.256 4.42133C34.256 2.19466 35.8506 0 38.864 0H38.8667ZM38.9253 7.38933C39.7707 7.38933 40.976 6.82666 40.976 4.71466C40.976 3.00266 40.2613 1.29067 38.7706 1.29067C37.7146 1.29067 36.6 2.04267 36.6 4.09334C36.6 6.392 37.7973 7.38933 38.9226 7.38933H38.9253Z" fill="#1F1E21"/>
<path d="M58.312 0.23465L60.1173 5.10132L61.6186 0.23465H64.6213C64.176 0.469316 64.0933 0.866648 64.152 1.40798L64.704 6.71998C64.784 7.51731 64.8906 7.91465 65.3253 8.44265H62.1013C62.3946 8.13865 62.488 7.81065 62.488 7.54132C62.488 7.27198 62.464 7.11998 62.44 6.87198L62.064 3.04798L60.352 8.59464C59.712 8.54131 58.9306 8.24531 58.464 7.02398L56.9973 3.08265L56.5626 7.02398C56.4906 7.70398 56.5386 8.11465 57.0533 8.44265H54.696C54.9413 8.20798 55.1653 7.85598 55.272 7.04798L55.952 1.73598C55.9866 1.42931 56.0933 0.76265 55.496 0.23465H58.312Z" fill="#1F1E21"/>
<path d="M47.16 0.23465L48.9653 5.10132L50.4666 0.23465H53.4693C53.024 0.469316 52.9413 0.866648 53 1.40798L53.552 6.71998C53.632 7.51731 53.7386 7.91465 54.1733 8.44265H50.9493C51.2426 8.13865 51.336 7.81065 51.336 7.54132C51.336 7.27198 51.3146 7.11998 51.2906 6.87198L50.9146 3.04798L49.2026 8.59464C48.5626 8.54131 47.7813 8.24531 47.3146 7.02398L45.848 3.08265L45.416 7.02398C45.344 7.70398 45.392 8.11465 45.9066 8.44265H43.5493C43.7946 8.20798 44.0186 7.85598 44.1253 7.04798L44.8053 1.73598C44.84 1.42931 44.9466 0.76265 44.3466 0.23465H47.16Z" fill="#1F1E21"/>
<path d="M70.6107 0.234697C70.728 0.234697 70.8107 0.221358 70.904 0.186691V1.93336C70.5973 1.46403 70.1547 1.40536 69.872 1.40536H68.792V3.45603H70.4933V5.0507C70.224 4.68803 69.9067 4.62936 69.6613 4.62936H68.792V6.91736C68.792 7.1627 68.8987 7.26936 69.6827 7.26936H70.6213C71.16 7.26936 71.6293 6.9867 71.9467 6.6587L71.4773 8.44003H66.0693C66.4907 8.11203 66.5627 7.64269 66.5627 7.16269V1.51202C66.5627 1.02936 66.4933 0.560031 66.0693 0.234697H70.608H70.6107Z" fill="#1F1E21"/>
<path d="M78.5226 2.02936C78.3573 1.59736 77.432 1.57069 77.0906 1.57069H76.3786V7.16536C76.3786 7.64536 76.448 8.1147 76.872 8.4427H73.6586C74.08 8.1147 74.152 7.64536 74.152 7.16536V1.57069H73.3653C72.792 1.57069 72.3573 1.77069 72.0053 2.11203L72.464 0.186691C72.5573 0.221358 72.64 0.234697 72.7573 0.234697H77.776C77.8933 0.234697 77.9733 0.221358 78.0693 0.186691L78.5253 2.02936H78.5226Z" fill="#1F1E21"/>
<path d="M82.2613 0.234755C81.84 0.562755 81.768 1.03208 81.768 1.51208V5.55742L84.512 0.232086H86.952C86.5306 0.560086 86.4586 1.02942 86.4586 1.50942V7.16009C86.4586 7.64009 86.528 8.10942 86.952 8.43742H83.7386C84.16 8.10942 84.232 7.64009 84.232 7.16009V3.11475L81.464 8.43742H79.048C79.4693 8.10942 79.5386 7.64009 79.5386 7.16009V1.50942C79.5386 1.02676 79.4693 0.55742 79.048 0.232086H82.2613V0.234755Z" fill="#1F1E21"/>
<path d="M88.3706 0.186662C89.4026 0.127995 89.5306 0 90.6693 0C93.1093 0 93.5546 1.13866 93.5546 1.94666C93.5546 2.53333 93.3893 3.528 92.0773 3.88C93.04 3.94933 94 4.57067 94 5.816C94 7.352 92.9093 8.67733 90.1653 8.67733C89.3093 8.67733 88.688 8.56 87.96 8.184L87.632 6.33066C88.464 7.23466 89.2026 7.38666 89.848 7.38666C91.6186 7.38666 91.7706 6.41333 91.7706 5.97866C91.7706 5.38133 91.5253 4.64 90.3866 4.64C90.0453 4.64 89.6613 4.67467 89.2506 4.89867V3.232C89.416 3.29067 89.6506 3.34933 90 3.34933C91.2426 3.34933 91.36 2.672 91.36 2.23733C91.36 1.33333 90.6453 1.288 90.3386 1.288C89.928 1.288 89.1306 1.368 88.192 2.00533L88.368 0.186662H88.3706Z" fill="#1F1E21"/>
<path d="M21.1654 12.4214V14.9894H20.8507V12.688H19.5094V14.9894H19.1947V12.4214H21.1654Z" fill="#1F1E21"/>
<path d="M22.4854 16.0827V12.9147L22.4641 12.4187H22.7654V12.9493H22.7814C22.8507 12.7653 22.9627 12.6267 23.1201 12.528C23.2747 12.432 23.4374 12.3813 23.6081 12.3787H23.632C23.92 12.3787 24.1654 12.488 24.3734 12.704C24.5787 12.92 24.6827 13.2533 24.6827 13.7013C24.6827 14.1493 24.5894 14.4507 24.4027 14.648C24.216 14.848 24.0107 14.9627 23.7867 15C23.7547 15.008 23.7174 15.0107 23.68 15.016C23.6427 15.0187 23.608 15.0213 23.576 15.0213C23.392 15.0213 23.2374 14.9733 23.1067 14.8747C22.976 14.776 22.8774 14.6587 22.8054 14.5253H22.7894L22.8 14.976V16.0827H22.4854ZM23.0374 14.496C23.1947 14.672 23.376 14.76 23.576 14.76C23.592 14.76 23.6107 14.76 23.6294 14.76C23.648 14.76 23.6667 14.7573 23.6854 14.752C23.8534 14.7253 24.0054 14.6293 24.144 14.4587C24.2827 14.2907 24.352 14.0373 24.352 13.7013C24.352 13.3653 24.2854 13.128 24.1494 12.96C24.0134 12.7947 23.8667 12.6933 23.7067 12.6613C23.6827 12.6533 23.6614 12.6507 23.64 12.648C23.6187 12.648 23.5974 12.648 23.576 12.648C23.56 12.648 23.5414 12.648 23.5227 12.648C23.5041 12.648 23.4854 12.6533 23.4667 12.656C23.2987 12.6827 23.1467 12.7813 23.0081 12.9493C22.8694 13.1173 22.8 13.368 22.8 13.704C22.8 14.056 22.8801 14.3227 23.0374 14.4987V14.496Z" fill="#1F1E21"/>
<path d="M25.9334 12.7707C26.1334 12.5093 26.4294 12.3813 26.8187 12.3813C27.208 12.3813 27.504 12.512 27.704 12.7707C27.904 13.0293 28.0027 13.3413 28.0027 13.7067C28.0027 14.072 27.9014 14.376 27.7014 14.6347C27.4987 14.8933 27.2054 15.024 26.8187 15.024C26.432 15.024 26.136 14.8933 25.936 14.6347C25.7334 14.376 25.632 14.0667 25.632 13.7067C25.632 13.3467 25.7307 13.032 25.9307 12.7707H25.9334ZM25.9734 13.8667C25.9814 13.9227 25.992 13.9787 26.0027 14.0373C26.0454 14.2187 26.1334 14.384 26.2614 14.536C26.3894 14.688 26.576 14.7627 26.8187 14.7627C27.0614 14.7627 27.248 14.688 27.376 14.536C27.504 14.384 27.5894 14.2187 27.632 14.0373C27.6454 13.9813 27.656 13.9253 27.6614 13.8667C27.6694 13.8107 27.672 13.7573 27.672 13.7067C27.672 13.656 27.6694 13.6053 27.6614 13.5493C27.6534 13.4933 27.6454 13.4373 27.632 13.3813C27.592 13.2 27.5067 13.0293 27.3787 12.8773C27.2507 12.7227 27.064 12.6453 26.816 12.6453C26.568 12.6453 26.3814 12.7227 26.2534 12.8773C26.1254 13.0293 26.04 13.2 26 13.3813C25.9867 13.4373 25.976 13.4933 25.9707 13.5493C25.9654 13.6027 25.96 13.656 25.96 13.7067C25.96 13.7573 25.9627 13.8107 25.9707 13.8667H25.9734Z" fill="#1F1E21"/>
<path d="M30.7973 12.584C30.9013 12.5067 31.0027 12.4507 31.0987 12.4134C31.1973 12.376 31.2933 12.3574 31.3867 12.3574C31.6507 12.3574 31.872 12.4854 32.0533 12.744C32.232 13 32.3227 13.32 32.3227 13.704C32.3227 14.088 32.232 14.416 32.0507 14.6667C31.8693 14.9174 31.6453 15.04 31.3787 15.04C31.2853 15.04 31.1893 15.024 31.0933 14.992C30.9973 14.96 30.8987 14.9067 30.7973 14.832V16.0827H30.4827V14.832C30.4453 14.8587 30.408 14.8854 30.368 14.9067C30.328 14.9307 30.2907 14.9494 30.2533 14.968C30.192 14.9894 30.1333 15.0054 30.0773 15.016C30.0213 15.0267 29.9627 15.0347 29.9067 15.0347C29.6533 15.0347 29.432 14.9174 29.24 14.6827C29.0507 14.4507 28.9547 14.1254 28.9547 13.7067C28.9547 13.32 29.0453 12.9974 29.2267 12.7414C29.408 12.4854 29.632 12.3574 29.896 12.36C29.9893 12.36 30.0853 12.3787 30.184 12.416C30.2827 12.4534 30.3813 12.5094 30.4827 12.5867V11.488H30.7973V12.5867V12.584ZM30.4827 12.8454C30.3947 12.768 30.3093 12.712 30.2213 12.6774C30.136 12.6427 30.0533 12.6267 29.976 12.6294C29.7787 12.6294 29.616 12.728 29.4827 12.928C29.3493 13.128 29.2853 13.3867 29.2853 13.7067C29.2853 14.0267 29.352 14.2854 29.4853 14.4827C29.6187 14.68 29.784 14.7787 29.9867 14.7787C30.064 14.7787 30.144 14.7627 30.2267 14.728C30.3093 14.696 30.3947 14.6427 30.4827 14.568V12.848V12.8454ZM30.7973 14.5654C30.8853 14.6374 30.9707 14.6907 31.056 14.7254C31.1413 14.76 31.2213 14.776 31.2987 14.776C31.496 14.776 31.6613 14.6774 31.7947 14.48C31.928 14.2827 31.9947 14.024 31.9947 13.704C31.9947 13.384 31.928 13.1254 31.7973 12.9254C31.6667 12.7254 31.4987 12.6267 31.2987 12.6294C31.2213 12.6294 31.1413 12.6454 31.056 12.68C30.9707 12.712 30.8853 12.768 30.7973 12.8454V14.5654Z" fill="#1F1E21"/>
<path d="M33.5786 13.7947C33.5733 14.048 33.656 14.2773 33.816 14.48C33.9786 14.6827 34.208 14.784 34.504 14.784C34.6053 14.784 34.712 14.768 34.8266 14.736C34.9413 14.704 35.064 14.656 35.1946 14.5947V14.8853C35.1093 14.9227 35.0186 14.952 34.928 14.9733C34.8373 14.9947 34.7466 15.0107 34.6586 15.0213C34.6293 15.024 34.5973 15.0267 34.568 15.0293C34.5386 15.0293 34.5093 15.032 34.4773 15.032C34.1573 15.032 33.872 14.9253 33.6213 14.7173C33.3706 14.5067 33.2453 14.1547 33.2453 13.6613C33.2453 13.296 33.344 12.9893 33.5386 12.7467C33.7333 12.504 34.008 12.3813 34.3626 12.3813C34.6693 12.3813 34.8933 12.4587 35.0346 12.608C35.176 12.76 35.272 12.9253 35.3226 13.1067C35.352 13.2213 35.3706 13.3307 35.3786 13.4347C35.3866 13.5387 35.3893 13.6267 35.3893 13.696V13.7973H33.5786V13.7947ZM35.0586 13.5307C35.0613 13.48 35.0586 13.424 35.0586 13.3627C35.0533 13.3013 35.04 13.2373 35.0213 13.1707C34.9893 13.04 34.9226 12.92 34.824 12.8107C34.7253 12.7013 34.5733 12.6453 34.3653 12.6453C34.1413 12.6453 33.968 12.7147 33.848 12.848C33.7253 12.984 33.648 13.1307 33.6106 13.296C33.6 13.336 33.592 13.376 33.5893 13.416C33.584 13.456 33.5813 13.4933 33.5813 13.5307H35.0613H35.0586Z" fill="#1F1E21"/>
<path d="M38.192 12.7706C38.1387 12.7493 38.0827 12.7333 38.0213 12.7173C37.96 12.7013 37.8987 12.688 37.8373 12.68C37.7947 12.6693 37.7493 12.664 37.7067 12.6586C37.664 12.656 37.6213 12.6533 37.5813 12.6533C37.2853 12.6533 37.0533 12.7546 36.8907 12.9573C36.728 13.16 36.6453 13.408 36.6453 13.704C36.6453 14 36.7333 14.248 36.9067 14.4533C37.08 14.6586 37.3253 14.76 37.6427 14.76C37.672 14.76 37.704 14.76 37.7333 14.76C37.7653 14.76 37.7973 14.7546 37.8267 14.7493C37.8907 14.7413 37.952 14.7306 38.016 14.712C38.08 14.696 38.1387 14.6773 38.1973 14.6586L38.2267 14.928C38.1573 14.952 38.0827 14.9706 38.008 14.984C37.9333 15 37.856 15.0106 37.7813 15.016C37.7573 15.016 37.7333 15.016 37.7093 15.016C37.6853 15.016 37.6587 15.0186 37.632 15.0186C37.208 15.0186 36.8827 14.8853 36.656 14.616C36.4293 14.3493 36.3147 14.0426 36.3147 13.704C36.3147 13.6773 36.3147 13.6506 36.3147 13.624C36.3147 13.5973 36.32 13.5706 36.3227 13.544C36.352 13.2533 36.4667 12.9893 36.6667 12.7493C36.8667 12.5093 37.176 12.3893 37.592 12.3893C37.6853 12.3893 37.784 12.3973 37.888 12.4133C37.992 12.4293 38.096 12.4533 38.2027 12.4906L38.1867 12.7706H38.192Z" fill="#1F1E21"/>
<path d="M40.9787 12.7706C40.9254 12.7493 40.8694 12.7333 40.808 12.7173C40.7467 12.7013 40.6854 12.688 40.624 12.68C40.5814 12.6693 40.536 12.664 40.4934 12.6586C40.4507 12.656 40.408 12.6533 40.368 12.6533C40.072 12.6533 39.84 12.7546 39.6774 12.9573C39.512 13.16 39.432 13.408 39.432 13.704C39.432 14 39.52 14.248 39.6934 14.4533C39.8667 14.6586 40.112 14.76 40.4294 14.76C40.4587 14.76 40.4907 14.76 40.5227 14.76C40.5547 14.76 40.5867 14.7546 40.616 14.7493C40.68 14.7413 40.744 14.7306 40.8054 14.712C40.8694 14.696 40.928 14.6773 40.9867 14.6586L41.016 14.928C40.9467 14.952 40.872 14.9706 40.7974 14.984C40.7227 15 40.6454 15.0106 40.5707 15.016C40.5467 15.016 40.5227 15.016 40.4987 15.016C40.4747 15.016 40.448 15.0186 40.4214 15.0186C39.9974 15.0186 39.672 14.8853 39.4454 14.616C39.2187 14.3493 39.104 14.0426 39.104 13.704C39.104 13.6773 39.104 13.6506 39.104 13.624C39.104 13.5973 39.1094 13.5706 39.112 13.544C39.1414 13.2533 39.256 12.9893 39.456 12.7493C39.656 12.5093 39.9654 12.3893 40.3814 12.3893C40.4747 12.3893 40.5734 12.3973 40.6747 12.4133C40.7787 12.4293 40.8827 12.4533 40.9894 12.4906L40.9734 12.7706H40.9787Z" fill="#1F1E21"/>
<path d="M42.3787 12.4214V14.304L42.3733 14.5734H42.3893L42.56 14.296L43.8853 12.4214H44.2347V14.9894H43.92V13.1067L43.9253 12.8374H43.9093L43.7387 13.1067L42.4133 14.9894H42.064V12.4214H42.3787Z" fill="#1F1E21"/>
<path d="M45.6613 12.7707C45.8613 12.5093 46.1573 12.3813 46.5467 12.3813C46.936 12.3813 47.232 12.512 47.432 12.7707C47.632 13.0293 47.7333 13.3413 47.7333 13.7067C47.7333 14.072 47.632 14.376 47.432 14.6347C47.2293 14.8933 46.936 15.024 46.5493 15.024C46.1627 15.024 45.8667 14.8933 45.6667 14.6347C45.4667 14.376 45.3653 14.0667 45.3653 13.7067C45.3653 13.3467 45.464 13.032 45.6667 12.7707H45.6613ZM45.7013 13.8667C45.7093 13.9227 45.7173 13.9787 45.7307 14.0373C45.7733 14.2187 45.8587 14.384 45.9893 14.536C46.1173 14.688 46.304 14.7627 46.5467 14.7627C46.7893 14.7627 46.976 14.688 47.104 14.536C47.232 14.384 47.3173 14.2187 47.36 14.0373C47.3733 13.9813 47.384 13.9253 47.3893 13.8667C47.3973 13.8107 47.4 13.7573 47.4 13.7067C47.4 13.656 47.4 13.6053 47.3893 13.5493C47.3813 13.4933 47.3733 13.4373 47.36 13.3813C47.32 13.2 47.2373 13.0293 47.1067 12.8773C46.9787 12.7227 46.792 12.6453 46.544 12.6453C46.296 12.6453 46.1093 12.7227 45.9813 12.8773C45.8533 13.0293 45.768 13.2 45.728 13.3813C45.7147 13.4373 45.704 13.4933 45.6987 13.5493C45.6907 13.6027 45.688 13.656 45.688 13.7067C45.688 13.7573 45.6907 13.8107 45.6987 13.8667H45.7013Z" fill="#1F1E21"/>
<path d="M49.1734 12.4214V13.5227H50.5654V12.4214H50.88V14.9894H50.5654V13.7894H49.1734V14.9894H48.8587V12.4214H49.1734Z" fill="#1F1E21"/>
<path d="M52.288 12.5493C52.3654 12.5173 52.4454 12.488 52.5334 12.464C52.6187 12.44 52.7067 12.4213 52.7947 12.408C52.8374 12.4 52.8827 12.3947 52.9254 12.392C52.968 12.3893 53.0107 12.3867 53.056 12.3867C53.3547 12.3867 53.5627 12.448 53.6854 12.5653C53.808 12.6853 53.888 12.8187 53.9254 12.96C53.9414 13.0267 53.952 13.0933 53.9547 13.1547C53.9574 13.2187 53.96 13.2747 53.96 13.3307V14.4213L53.9734 14.9813H53.6934V14.5467H53.6827C53.616 14.6693 53.536 14.7653 53.4374 14.8373C53.3414 14.9067 53.24 14.9547 53.1387 14.984C53.088 14.9947 53.04 15.0027 52.992 15.008C52.944 15.0133 52.896 15.0187 52.8507 15.0187C52.5814 15.0187 52.3734 14.9493 52.2267 14.808C52.0827 14.6667 52.008 14.4933 52.008 14.2827C52.008 14.2347 52.0134 14.1867 52.0214 14.1333C52.0294 14.08 52.0427 14.024 52.064 13.968C52.12 13.8293 52.2374 13.704 52.4107 13.5893C52.5867 13.4747 52.872 13.416 53.2694 13.416H53.6454V13.256C53.6454 13.232 53.6454 13.208 53.64 13.1867C53.6294 13.0533 53.5867 12.9307 53.512 12.8187C53.4374 12.7067 53.2854 12.6507 53.0534 12.6507C52.9867 12.6507 52.92 12.6533 52.8587 12.664C52.7947 12.672 52.7334 12.6853 52.6747 12.7013C52.6107 12.7173 52.5467 12.7387 52.4854 12.7627C52.4214 12.7867 52.3574 12.8133 52.2907 12.848V12.5467L52.288 12.5493ZM53.4774 13.6853H53.2934C53.0534 13.6933 52.8347 13.7307 52.6347 13.8027C52.4347 13.8747 52.336 14.0347 52.336 14.28C52.336 14.4133 52.3814 14.528 52.4774 14.6213C52.5707 14.7147 52.7067 14.76 52.888 14.76C53.0934 14.76 53.2454 14.7147 53.3494 14.6213C53.4534 14.528 53.5254 14.424 53.5707 14.3093C53.6054 14.2133 53.6294 14.1227 53.6347 14.0373C53.6427 13.952 53.6454 13.896 53.6454 13.8693V13.6827H53.48L53.4774 13.6853Z" fill="#1F1E21"/>
<path d="M57.1813 12.4214V14.9894H56.8667V12.688H55.7867V13.4347C55.792 13.8347 55.7707 14.2 55.7227 14.5307C55.6747 14.8614 55.4933 15.0267 55.1787 15.0267C55.1253 15.0267 55.0773 15.0267 55.032 15.0214C54.9867 15.016 54.9467 15.0107 54.9093 14.9974L54.9147 14.7307C54.9467 14.7414 54.9787 14.7467 55.0053 14.752C55.032 14.7547 55.056 14.7574 55.08 14.7574C55.16 14.7574 55.2213 14.7387 55.2667 14.7014C55.312 14.664 55.3467 14.624 55.3733 14.5814C55.3867 14.5547 55.3973 14.528 55.4053 14.504C55.4133 14.48 55.4187 14.4587 55.424 14.44C55.4427 14.3547 55.4587 14.2214 55.472 14.0454C55.4853 13.8694 55.4907 13.5627 55.4907 13.1307V12.424H57.1813V12.4214Z" fill="#1F1E21"/>
<path d="M58.696 12.4214V13.4321H59.3067C59.664 13.4321 59.9173 13.5121 60.064 13.6721C60.2133 13.8321 60.288 14.0107 60.288 14.2081C60.288 14.2507 60.2827 14.2987 60.2747 14.352C60.2667 14.4054 60.248 14.4614 60.2213 14.5174C60.1707 14.6347 60.0773 14.7414 59.944 14.8401C59.808 14.9387 59.6027 14.9867 59.3253 14.9867H58.3813V12.4187H58.696V12.4214ZM58.696 14.7227H59.3627C59.3947 14.7227 59.4347 14.7201 59.4773 14.7147C59.52 14.7094 59.5653 14.7014 59.6133 14.6881C59.7013 14.6614 59.7787 14.6107 59.8507 14.5414C59.9227 14.4694 59.9573 14.3574 59.9573 14.2081C59.9573 14.0241 59.9013 13.8934 59.7867 13.8161C59.672 13.7387 59.5307 13.6987 59.36 13.6987H58.6933V14.7254L58.696 14.7227Z" fill="#1F1E21"/>
<path d="M61.728 12.4214V13.5227H63.12V12.4214H63.4347V14.9894H63.12V13.7894H61.728V14.9894H61.4134V12.4214H61.728Z" fill="#1F1E21"/>
<path d="M65.0534 12.4214V13.4321H65.664C66.0214 13.4321 66.2747 13.5121 66.4214 13.6721C66.5707 13.8321 66.6427 14.0107 66.6427 14.2081C66.6427 14.2507 66.6374 14.2987 66.6294 14.352C66.6214 14.4054 66.6027 14.4614 66.576 14.5174C66.528 14.6347 66.4347 14.7414 66.2987 14.8401C66.1627 14.9387 65.9574 14.9867 65.68 14.9867H64.7334V12.4187H65.048L65.0534 12.4214ZM65.0534 14.7227H65.7174C65.7494 14.7227 65.7894 14.7201 65.8347 14.7147C65.88 14.7094 65.9254 14.6987 65.9734 14.6827C66.0587 14.6561 66.1387 14.6081 66.208 14.5361C66.2774 14.4641 66.3147 14.3547 66.3147 14.2081C66.3147 14.0267 66.256 13.8987 66.136 13.8187C66.0187 13.7387 65.8774 13.6987 65.7174 13.6987H65.0534V14.7254V14.7227ZM67.3547 12.4214V14.9894H67.04V12.4214H67.3547Z" fill="#1F1E21"/>
<path d="M68.9707 12.4214V14.304L68.9653 14.5734H68.9813L69.152 14.296L70.4773 12.4214H70.8267V14.9894H70.512V13.1067L70.5173 12.8374H70.5013L70.3307 13.1067L69.0053 14.9894H68.656V12.4214H68.9707ZM69.16 11.2667C69.184 11.2934 69.2053 11.3174 69.2293 11.3414C69.2533 11.3654 69.2747 11.384 69.2987 11.4027C69.376 11.4667 69.4533 11.5067 69.528 11.5254C69.6053 11.544 69.6747 11.552 69.7387 11.552C69.8027 11.552 69.872 11.544 69.9493 11.5254C70.0267 11.5067 70.1013 11.4667 70.1787 11.4027C70.2027 11.3867 70.224 11.3654 70.248 11.3414C70.272 11.3174 70.296 11.2934 70.3173 11.2667L70.4667 11.4427C70.3867 11.552 70.2827 11.6454 70.16 11.72C70.0347 11.7947 69.8933 11.832 69.736 11.832C69.5787 11.832 69.4427 11.7947 69.3147 11.72C69.1867 11.6454 69.0853 11.552 69.0053 11.4427L69.1547 11.2667H69.16Z" fill="#1F1E21"/>
<path d="M74.6987 12.4214V13.552H74.7147L75.8907 12.4214H76.296L75.0347 13.6161L76.4294 14.9867H75.984L74.7147 13.7147H74.6987V14.9867H74.384V12.4187H74.6987V12.4214Z" fill="#1F1E21"/>
<path d="M77.376 16.0827V12.9147L77.3547 12.4187H77.6533V12.9493H77.6693C77.7387 12.7653 77.8533 12.6267 78.008 12.528C78.1627 12.432 78.3253 12.3813 78.496 12.3787H78.52C78.808 12.3787 79.0533 12.488 79.2613 12.704C79.4693 12.92 79.5707 13.2533 79.5707 13.7013C79.5707 14.1493 79.4773 14.4507 79.2907 14.648C79.104 14.848 78.8987 14.9627 78.6747 15C78.64 15.008 78.6053 15.0107 78.568 15.016C78.5307 15.0187 78.496 15.0213 78.464 15.0213C78.28 15.0213 78.1227 14.9733 77.9947 14.8747C77.864 14.776 77.7653 14.6587 77.6933 14.5253H77.6773L77.688 14.976V16.0827H77.3733H77.376ZM77.928 14.496C78.0853 14.672 78.2667 14.76 78.4667 14.76C78.4827 14.76 78.5013 14.76 78.52 14.76C78.5387 14.76 78.5573 14.7573 78.576 14.752C78.744 14.7253 78.896 14.6293 79.0347 14.4587C79.1733 14.2907 79.2427 14.0373 79.2427 13.7013C79.2427 13.3653 79.176 13.128 79.04 12.96C78.9067 12.7947 78.7573 12.6933 78.5973 12.6613C78.5733 12.6533 78.552 12.6507 78.5307 12.648C78.5093 12.648 78.488 12.648 78.4667 12.648C78.4507 12.648 78.432 12.648 78.4133 12.648C78.3947 12.648 78.376 12.6533 78.3573 12.656C78.192 12.6827 78.0373 12.7813 77.8987 12.9493C77.76 13.1173 77.6907 13.368 77.6907 13.704C77.6907 14.056 77.7707 14.3227 77.928 14.4987V14.496Z" fill="#1F1E21"/>
<path d="M80.8293 13.7947C80.8267 14.048 80.9067 14.2773 81.0667 14.48C81.2293 14.6827 81.4587 14.784 81.7547 14.784C81.8533 14.784 81.9627 14.768 82.0773 14.736C82.192 14.704 82.3147 14.656 82.4453 14.5947V14.8853C82.36 14.9227 82.2693 14.952 82.1787 14.9733C82.088 14.9947 82 15.0107 81.9093 15.0213C81.88 15.024 81.8507 15.0267 81.8187 15.0293C81.7893 15.0293 81.7573 15.032 81.728 15.032C81.408 15.032 81.1227 14.9253 80.872 14.7173C80.6213 14.5067 80.496 14.1547 80.496 13.6613C80.496 13.296 80.5947 12.9893 80.7893 12.7467C80.984 12.504 81.2587 12.3813 81.6133 12.3813C81.92 12.3813 82.144 12.4587 82.2853 12.608C82.4267 12.76 82.5227 12.9253 82.5733 13.1067C82.6027 13.2213 82.6213 13.3307 82.6293 13.4347C82.6373 13.5387 82.64 13.6267 82.64 13.696V13.7973H80.8293V13.7947ZM82.3093 13.5307C82.312 13.48 82.3093 13.424 82.3067 13.3627C82.3013 13.3013 82.288 13.2373 82.2693 13.1707C82.2347 13.04 82.1707 12.92 82.072 12.8107C81.9733 12.7013 81.8213 12.6453 81.6133 12.6453C81.3893 12.6453 81.216 12.7147 81.096 12.848C80.9733 12.984 80.896 13.1307 80.8587 13.296C80.848 13.336 80.84 13.376 80.8373 13.416C80.832 13.456 80.8293 13.4933 80.8293 13.5307H82.3093Z" fill="#1F1E21"/>
<path d="M85.712 12.4214V14.9894H85.3974V12.688H84.0561V14.9894H83.7414V12.4214H85.712Z" fill="#1F1E21"/>
<path d="M87.144 13.7947C87.1414 14.048 87.2214 14.2773 87.3814 14.48C87.544 14.6827 87.7734 14.784 88.0694 14.784C88.168 14.784 88.2773 14.768 88.392 14.736C88.5067 14.704 88.6294 14.656 88.76 14.5947V14.8853C88.672 14.9227 88.584 14.952 88.4934 14.9733C88.4027 14.9947 88.312 15.0107 88.224 15.0213C88.1947 15.024 88.1653 15.0267 88.1333 15.0293C88.104 15.0293 88.0747 15.032 88.0427 15.032C87.7227 15.032 87.4374 14.9253 87.1867 14.7173C86.936 14.5067 86.8107 14.1547 86.8107 13.6613C86.8107 13.296 86.9067 12.9893 87.104 12.7467C87.2987 12.504 87.5734 12.3813 87.928 12.3813C88.2347 12.3813 88.4587 12.4587 88.6 12.608C88.7413 12.76 88.8374 12.9253 88.888 13.1067C88.9174 13.2213 88.936 13.3307 88.944 13.4347C88.952 13.5387 88.9547 13.6267 88.9547 13.696V13.7973H87.144V13.7947ZM88.6267 13.5307C88.6294 13.48 88.6267 13.424 88.6267 13.3627C88.6214 13.3013 88.608 13.2373 88.5894 13.1707C88.5574 13.04 88.4907 12.92 88.392 12.8107C88.2933 12.7013 88.1414 12.6453 87.936 12.6453C87.712 12.6453 87.5387 12.7147 87.416 12.848C87.2933 12.984 87.216 13.1307 87.1787 13.296C87.168 13.336 87.16 13.376 87.1547 13.416C87.1494 13.456 87.1467 13.4933 87.1467 13.5307H88.6294H88.6267Z" fill="#1F1E21"/>
<path d="M91.6667 12.4214V13.5814H91.6907L92.808 12.4214H93.192L92.016 13.616L93.336 14.9867H92.8854L91.688 13.696H91.664V14.9867H91.3494V13.696H91.3254L90.1307 14.9867H89.68L91 13.616L89.824 12.4214H90.2107L91.3254 13.5814H91.3494V12.4214H91.664H91.6667Z" fill="#1F1E21"/>
</svg>
