<svg width="132" height="13" viewBox="0 0 132 13" fill="none" xmlns="http://www.w3.org/2000/svg">
<path d="M13.2143 12.9266H0V7.09369L6.60717 11.7474L13.2143 7.09369V12.9266Z" fill="#E3A715"/>
<path d="M4.27386 9.11874C10.0374 8.07241 13.2167 5.22471 13.2167 5.22471C13.2167 5.22471 9.39366 7.04938 1.67329 7.28708L4.27386 9.11874ZM6.6095 10.764L9.07063 9.03019C7.94813 9.26322 6.59788 9.48461 5.01755 9.64307L6.6095 10.764ZM0 6.10352e-05V1.43556C3.71377 1.43556 6.71408 0.915891 8.91259 6.10352e-05H0ZM0 2.16729V3.95933C8.44779 3.95933 13.2143 0.0769596 13.2143 0.0769596C13.2143 0.0769596 8.84287 2.16729 0 2.16729ZM0 6.10792L0.841293 6.65555C8.66857 6.35028 13.2143 2.64967 13.2143 2.64967C13.2143 2.64967 8.84287 4.73767 0 4.73767V6.10792Z" fill="#1F1E21"/>
<path d="M29.4354 0.345459C28.8012 0.828321 28.6929 1.51924 28.6929 2.22587V10.5444C28.6929 11.2511 28.8012 11.942 29.4354 12.4249H24.5988C25.2329 11.942 25.3413 11.2511 25.3413 10.5444V2.06884H22.0941V10.5444C22.0941 11.2511 22.2025 11.942 22.8367 12.4249H18C18.6342 11.942 18.7426 11.2511 18.7426 10.5444V2.22587C18.7426 1.51531 18.6382 0.824396 18 0.345459H29.4394H29.4354Z" fill="#1F1E21"/>
<path d="M36.608 0.345459C38.8477 0.345459 40.385 1.72337 40.385 3.62342C40.385 6.28112 37.8443 7.52558 35.143 7.24685C36.3592 6.71295 36.9452 5.76293 36.9452 4.45175C36.9452 2.74406 36.01 2.15521 35.143 2.15521H34.9664V10.5444C34.9664 11.2511 35.0707 11.942 35.7089 12.4249H30.8723C31.5064 11.942 31.6148 11.2511 31.6148 10.5444V2.22587C31.6148 1.51531 31.5105 0.824396 30.8723 0.345459H36.612H36.608Z" fill="#1F1E21"/>
<path d="M48.4128 0C52.5792 0 55.1199 2.69304 55.1199 6.31647C55.1199 9.9399 52.523 12.7743 48.18 12.7743C43.52 12.7743 41.4729 9.54732 41.4729 6.50882C41.4729 3.23085 43.8732 0 48.4088 0H48.4128ZM48.5011 10.8781C49.7735 10.8781 51.5878 10.0498 51.5878 6.94065C51.5878 4.42035 50.5121 1.90004 48.2683 1.90004C46.6789 1.90004 45.0011 3.0071 45.0011 6.02597C45.0011 9.40993 46.8033 10.8781 48.4971 10.8781H48.5011Z" fill="#1F1E21"/>
<path d="M77.6818 0.345459L80.3991 7.50988L82.6589 0.345459H87.1785C86.5082 0.690921 86.3838 1.27585 86.4721 2.07277L87.3029 9.89278C87.4234 11.0666 87.5839 11.6515 88.2382 12.4288H83.3854C83.827 11.9813 83.9674 11.4984 83.9674 11.1019C83.9674 10.7054 83.9313 10.4816 83.8952 10.1165L83.3292 4.48708L80.7524 12.6525C79.789 12.574 78.613 12.1383 77.9106 10.3403L75.703 4.53811L75.0487 10.3403C74.9403 11.3414 75.0126 11.9459 75.7872 12.4288H72.239C72.6083 12.0833 72.9454 11.5651 73.106 10.3756L74.1295 2.55562C74.1817 2.10417 74.3423 1.12275 73.4432 0.345459H77.6818Z" fill="#1F1E21"/>
<path d="M60.8958 0.345459L63.6132 7.50988L65.873 0.345459H70.3925C69.7222 0.690921 69.5978 1.27585 69.6861 2.07277L70.517 9.89278C70.6374 11.0666 70.7979 11.6515 71.4522 12.4288H66.5995C67.041 11.9813 67.1815 11.4984 67.1815 11.1019C67.1815 10.7054 67.1494 10.4816 67.1132 10.1165L66.5473 4.48708L63.9704 12.6525C63.0071 12.574 61.831 12.1383 61.1286 10.3403L58.921 4.53811L58.2707 10.3403C58.1624 11.3414 58.2346 11.9459 59.0093 12.4288H55.4611C55.8303 12.0833 56.1675 11.5651 56.328 10.3756L57.3516 2.55562C57.4038 2.10417 57.5643 1.12275 56.6612 0.345459H60.8958Z" fill="#1F1E21"/>
<path d="M96.1937 0.345513C96.3703 0.345513 96.4947 0.325876 96.6352 0.274841V2.84619C96.1736 2.15526 95.5073 2.06889 95.0818 2.06889H93.4562V5.08776H96.017V7.43534C95.6116 6.90145 95.134 6.81507 94.7647 6.81507H93.4562V10.1833C93.4562 10.5445 93.6168 10.7015 94.7968 10.7015H96.2097C97.0205 10.7015 97.7269 10.2854 98.2046 9.80255L97.4982 12.4249H89.3581C89.9923 11.9421 90.1007 11.2511 90.1007 10.5445V2.22592C90.1007 1.51537 89.9963 0.82445 89.3581 0.345513H96.1896H96.1937Z" fill="#1F1E21"/>
<path d="M108.103 2.98751C107.854 2.35154 106.461 2.31229 105.947 2.31229H104.875V10.5484C104.875 11.2551 104.98 11.946 105.618 12.4288H100.781C101.416 11.946 101.524 11.2551 101.524 10.5484V2.31229H100.34C99.4769 2.31229 98.8226 2.60671 98.2928 3.1092L98.9832 0.274841C99.1237 0.325876 99.2481 0.345513 99.4247 0.345513H106.979C107.155 0.345513 107.276 0.325876 107.42 0.274841L108.107 2.98751H108.103Z" fill="#1F1E21"/>
<path d="M113.73 0.345543C113.096 0.828406 112.987 1.51932 112.987 2.22595V8.18126L117.118 0.341614H120.79C120.156 0.824476 120.048 1.5154 120.048 2.22203V10.5406C120.048 11.2472 120.152 11.9382 120.79 12.421H115.954C116.588 11.9382 116.696 11.2472 116.696 10.5406V4.5853L112.53 12.421H108.893C109.527 11.9382 109.632 11.2472 109.632 10.5406V2.22203C109.632 1.51148 109.527 0.82055 108.893 0.341614H113.73V0.345543Z" fill="#1F1E21"/>
<path d="M122.926 0.274793C124.479 0.188427 124.672 0 126.386 0C130.058 0 130.729 1.67627 130.729 2.86576C130.729 3.72942 130.48 5.19371 128.505 5.7119C129.954 5.81397 131.399 6.72867 131.399 8.56197C131.399 10.8232 129.757 12.7743 125.627 12.7743C124.339 12.7743 123.403 12.6015 122.308 12.048L121.814 9.31963C123.066 10.6504 124.178 10.8742 125.149 10.8742C127.815 10.8742 128.043 9.44133 128.043 8.80144C128.043 7.92208 127.674 6.83073 125.96 6.83073C125.446 6.83073 124.868 6.88177 124.25 7.21153V4.75796C124.499 4.84432 124.852 4.93069 125.378 4.93069C127.249 4.93069 127.425 3.93356 127.425 3.29366C127.425 1.96285 126.35 1.89611 125.888 1.89611C125.27 1.89611 124.07 2.01388 122.657 2.95213L122.922 0.274793H122.926Z" fill="#1F1E21"/>
</svg>
