<svg width="76" height="30" viewBox="0 0 76 30" fill="none" xmlns="http://www.w3.org/2000/svg">
<rect width="76" height="30" rx="4" fill="#FFA53D"/>
<path d="M15.1543 10.4102H21.9102V19H20.7676V11.4238H16.291V19H15.1543V10.4102ZM27.8926 16.9961L28.9824 17.1309C28.8105 17.7676 28.4922 18.2617 28.0273 18.6133C27.5625 18.9648 26.9688 19.1406 26.2461 19.1406C25.3359 19.1406 24.6133 18.8613 24.0781 18.3027C23.5469 17.7402 23.2812 16.9531 23.2812 15.9414C23.2812 14.8945 23.5508 14.082 24.0898 13.5039C24.6289 12.9258 25.3281 12.6367 26.1875 12.6367C27.0195 12.6367 27.6992 12.9199 28.2266 13.4863C28.7539 14.0527 29.0176 14.8496 29.0176 15.877C29.0176 15.9395 29.0156 16.0332 29.0117 16.1582H24.3711C24.4102 16.8418 24.6035 17.3652 24.9512 17.7285C25.2988 18.0918 25.7324 18.2734 26.252 18.2734C26.6387 18.2734 26.9688 18.1719 27.2422 17.9688C27.5156 17.7656 27.7324 17.4414 27.8926 16.9961ZM24.4297 15.291H27.9043C27.8574 14.7676 27.7246 14.375 27.5059 14.1133C27.1699 13.707 26.7344 13.5039 26.1992 13.5039C25.7148 13.5039 25.3066 13.666 24.9746 13.9902C24.6465 14.3145 24.4648 14.748 24.4297 15.291ZM30.3125 21.3848V12.7773H31.2734V13.5859C31.5 13.2695 31.7559 13.0332 32.041 12.877C32.3262 12.7168 32.6719 12.6367 33.0781 12.6367C33.6094 12.6367 34.0781 12.7734 34.4844 13.0469C34.8906 13.3203 35.1973 13.707 35.4043 14.207C35.6113 14.7031 35.7148 15.248 35.7148 15.8418C35.7148 16.4785 35.5996 17.0527 35.3691 17.5645C35.1426 18.0723 34.8105 18.4629 34.373 18.7363C33.9395 19.0059 33.4824 19.1406 33.002 19.1406C32.6504 19.1406 32.334 19.0664 32.0527 18.918C31.7754 18.7695 31.5469 18.582 31.3672 18.3555V21.3848H30.3125ZM31.2676 15.9238C31.2676 16.7246 31.4297 17.3164 31.7539 17.6992C32.0781 18.082 32.4707 18.2734 32.9316 18.2734C33.4004 18.2734 33.8008 18.0762 34.1328 17.6816C34.4688 17.2832 34.6367 16.668 34.6367 15.8359C34.6367 15.043 34.4727 14.4492 34.1445 14.0547C33.8203 13.6602 33.4316 13.4629 32.9785 13.4629C32.5293 13.4629 32.1309 13.6738 31.7832 14.0957C31.4395 14.5137 31.2676 15.123 31.2676 15.9238ZM41.252 16.9961L42.3418 17.1309C42.1699 17.7676 41.8516 18.2617 41.3867 18.6133C40.9219 18.9648 40.3281 19.1406 39.6055 19.1406C38.6953 19.1406 37.9727 18.8613 37.4375 18.3027C36.9062 17.7402 36.6406 16.9531 36.6406 15.9414C36.6406 14.8945 36.9102 14.082 37.4492 13.5039C37.9883 12.9258 38.6875 12.6367 39.5469 12.6367C40.3789 12.6367 41.0586 12.9199 41.5859 13.4863C42.1133 14.0527 42.377 14.8496 42.377 15.877C42.377 15.9395 42.375 16.0332 42.3711 16.1582H37.7305C37.7695 16.8418 37.9629 17.3652 38.3105 17.7285C38.6582 18.0918 39.0918 18.2734 39.6113 18.2734C39.998 18.2734 40.3281 18.1719 40.6016 17.9688C40.875 17.7656 41.0918 17.4414 41.252 16.9961ZM37.7891 15.291H41.2637C41.2168 14.7676 41.084 14.375 40.8652 14.1133C40.5293 13.707 40.0938 13.5039 39.5586 13.5039C39.0742 13.5039 38.666 13.666 38.334 13.9902C38.0059 14.3145 37.8242 14.748 37.7891 15.291ZM43.6719 12.7773H44.7266V17.5234L47.6504 12.7773H48.7871V19H47.7324V14.2832L44.8086 19H43.6719V12.7773ZM47.334 10.4219H48.0547C47.9961 10.9102 47.8164 11.2852 47.5156 11.5469C47.2188 11.8086 46.8223 11.9395 46.3262 11.9395C45.8262 11.9395 45.4258 11.8105 45.125 11.5527C44.8281 11.291 44.6504 10.9141 44.5918 10.4219H45.3125C45.3672 10.6875 45.4746 10.8867 45.6348 11.0195C45.7988 11.1484 46.0176 11.2129 46.291 11.2129C46.6074 11.2129 46.8457 11.1504 47.0059 11.0254C47.1699 10.8965 47.2793 10.6953 47.334 10.4219ZM49.8066 12.7773H54.8633V13.6504H52.8594V19H51.8105V13.6504H49.8066V12.7773ZM55.8711 12.7773H56.9258V17.5234L59.8496 12.7773H60.9863V19H59.9316V14.2832L57.0078 19H55.8711V12.7773Z" fill="white"/>
</svg>
