<svg width="130" height="21" viewBox="0 0 130 21" fill="none" xmlns="http://www.w3.org/2000/svg">
<g clip-path="url(#clip0_2654_134177)">
<path d="M20.9619 20.0671H0V11.0121L10.4809 18.2365L20.9619 11.0121V20.0671Z" fill="#E3A715"/>
<path d="M6.77961 14.1559C15.9223 12.5315 20.9656 8.11077 20.9656 8.11077C20.9656 8.11077 14.9011 10.9434 2.65434 11.3124L6.77961 14.1559ZM10.4846 16.7099L14.3887 14.0184C12.6081 14.3802 10.4662 14.7238 7.95932 14.9698L10.4846 16.7099ZM0 0V2.22847C5.89115 2.22847 10.6505 1.42174 14.138 0H0ZM0 3.36441V6.14639C13.4007 6.14639 20.9619 0.119378 20.9619 0.119378C20.9619 0.119378 14.0274 3.36441 0 3.36441ZM0 9.48186L1.33454 10.332C13.7509 9.8581 20.9619 4.11327 20.9619 4.11327C20.9619 4.11327 14.0274 7.35468 0 7.35468V9.48186Z" fill="#1F1E21"/>
<path d="M36.3024 4.51416C35.7199 4.95913 35.6204 5.59583 35.6204 6.24701V13.9128C35.6204 14.564 35.7199 15.2007 36.3024 15.6457H31.86C32.4425 15.2007 32.5421 14.564 32.5421 13.9128V6.1023H29.5596V13.9128C29.5596 14.564 29.6592 15.2007 30.2416 15.6457H25.7993C26.3818 15.2007 26.4813 14.564 26.4813 13.9128V6.24701C26.4813 5.59221 26.3855 4.95551 25.7993 4.51416H36.3061H36.3024Z" fill="#1F1E21"/>
<path d="M42.8898 4.51416C44.9469 4.51416 46.3588 5.78395 46.3588 7.53489C46.3588 9.98404 44.0252 11.1308 41.5442 10.874C42.6612 10.382 43.1994 9.50652 43.1994 8.29822C43.1994 6.72454 42.3405 6.18189 41.5442 6.18189H41.3819V13.9128C41.3819 14.564 41.4778 15.2007 42.064 15.6457H37.6216C38.2041 15.2007 38.3037 14.564 38.3037 13.9128V6.24701C38.3037 5.59221 38.2078 4.95551 37.6216 4.51416H42.8934H42.8898Z" fill="#1F1E21"/>
<path d="M53.7326 4.1958C57.5593 4.1958 59.8929 6.67751 59.8929 10.0166C59.8929 13.3557 57.5077 15.9676 53.5188 15.9676C49.2387 15.9676 47.3585 12.9939 47.3585 10.1939C47.3585 7.17312 49.5631 4.1958 53.7289 4.1958H53.7326ZM53.8137 14.2203C54.9824 14.2203 56.6487 13.457 56.6487 10.5918C56.6487 8.26927 55.6607 5.94674 53.5999 5.94674C52.14 5.94674 50.599 6.96692 50.599 9.7489C50.599 12.8673 52.2543 14.2203 53.81 14.2203H53.8137Z" fill="#1F1E21"/>
<path d="M80.6138 4.51416L83.1096 11.1164L85.1852 4.51416H89.3362C88.7206 4.83251 88.6063 5.37154 88.6874 6.10592L89.4505 13.3123C89.5611 14.394 89.7086 14.933 90.3095 15.6493H85.8524C86.2579 15.2369 86.387 14.7919 86.387 14.4265C86.387 14.0611 86.3538 13.8549 86.3206 13.5185L85.8008 8.33078L83.434 15.8555C82.5493 15.7831 81.4691 15.3816 80.8239 13.7247L78.7963 8.37781L78.1954 13.7247C78.0959 14.6472 78.1622 15.2043 78.8737 15.6493H75.6148C75.954 15.3309 76.2636 14.8534 76.4111 13.7573L77.3512 6.55089C77.3991 6.13486 77.5466 5.23046 76.7208 4.51416H80.6138Z" fill="#1F1E21"/>
<path d="M65.1974 4.51416L67.6932 11.1164L69.7687 4.51416H73.9198C73.3042 4.83251 73.1899 5.37154 73.271 6.10592L74.0341 13.3123C74.1447 14.394 74.2922 14.933 74.8931 15.6493H70.436C70.8415 15.2369 70.9705 14.7919 70.9705 14.4265C70.9705 14.0611 70.9411 13.8549 70.9079 13.5185L70.3881 8.33078L68.0213 15.8555C67.1365 15.7831 66.0563 15.3816 65.4112 13.7247L63.3836 8.37781L62.7864 13.7247C62.6868 14.6472 62.7532 15.2043 63.4647 15.6493H60.2057C60.5449 15.3309 60.8546 14.8534 61.0021 13.7573L61.9421 6.55089C61.99 6.13486 62.1375 5.23046 61.308 4.51416H65.1974Z" fill="#1F1E21"/>
<path d="M97.6175 4.51422C97.7797 4.51422 97.894 4.49613 98.023 4.4491V6.81867C97.599 6.18196 96.9871 6.10237 96.5963 6.10237H95.1032V8.88434H97.4553V11.0477C97.0829 10.5557 96.6442 10.4761 96.3051 10.4761H95.1032V13.5801C95.1032 13.9129 95.2507 14.0576 96.3345 14.0576H97.6322C98.3769 14.0576 99.0257 13.6741 99.4644 13.2291L98.8156 15.6457H91.3392C91.9217 15.2008 92.0213 14.5641 92.0213 13.9129V6.24707C92.0213 5.59228 91.9254 4.95558 91.3392 4.51422H97.6138H97.6175Z" fill="#1F1E21"/>
<path d="M108.555 6.9489C108.326 6.36284 107.047 6.32666 106.575 6.32666H105.591V13.9165C105.591 14.5677 105.687 15.2044 106.273 15.6494H101.83C102.413 15.2044 102.512 14.5677 102.512 13.9165V6.32666H101.425C100.632 6.32666 100.031 6.59798 99.5447 7.06104L100.179 4.4491C100.308 4.49613 100.422 4.51422 100.584 4.51422H107.522C107.685 4.51422 107.795 4.49613 107.928 4.4491L108.558 6.9489H108.555Z" fill="#1F1E21"/>
<path d="M113.725 4.51424C113.143 4.95921 113.043 5.59591 113.043 6.24709V11.7351L116.837 4.51062H120.21C119.628 4.95559 119.528 5.5923 119.528 6.24348V13.9093C119.528 14.5605 119.624 15.1972 120.21 15.6421H115.768C116.35 15.1972 116.45 14.5605 116.45 13.9093V8.4213L112.623 15.6421H109.283C109.866 15.1972 109.961 14.5605 109.961 13.9093V6.24348C109.961 5.58868 109.866 4.95197 109.283 4.51062H113.725V4.51424Z" fill="#1F1E21"/>
<path d="M122.17 4.44903C123.597 4.36944 123.774 4.1958 125.348 4.1958C128.721 4.1958 129.337 5.74053 129.337 6.83668C129.337 7.63257 129.108 8.98195 127.295 9.45948C128.625 9.55354 129.953 10.3965 129.953 12.0859C129.953 14.1697 128.445 15.9676 124.651 15.9676C123.468 15.9676 122.609 15.8085 121.602 15.2984L121.149 12.7841C122.299 14.0105 123.32 14.2167 124.213 14.2167C126.66 14.2167 126.871 12.8962 126.871 12.3066C126.871 11.4962 126.531 10.4905 124.957 10.4905C124.485 10.4905 123.954 10.5375 123.387 10.8414V8.58039C123.615 8.65998 123.94 8.73957 124.423 8.73957C126.141 8.73957 126.303 7.82068 126.303 7.231C126.303 6.00462 125.315 5.94312 124.891 5.94312C124.323 5.94312 123.221 6.05165 121.923 6.91627L122.166 4.44903H122.17Z" fill="#1F1E21"/>
</g>
<defs>
<clipPath id="clip0_2654_134177">
<rect width="130" height="20.0671" fill="white"/>
</clipPath>
</defs>
</svg>
