<svg width="120" height="14" viewBox="0 0 120 14" fill="none" xmlns="http://www.w3.org/2000/svg">
<path d="M12.9977 13.1657H0V7.42841L6.49886 12.0058L12.9977 7.42841V13.1657Z" fill="#E3A715"/>
<path d="M4.2038 9.42029C9.87287 8.39111 13 5.5901 13 5.5901C13 5.5901 9.23967 7.38485 1.64586 7.61865L4.2038 9.42029ZM6.50114 11.0385L8.92193 9.33319C7.81783 9.5624 6.48971 9.78016 4.93529 9.93602L6.50114 11.0385ZM0 0.451096V1.86306C3.65289 1.86306 6.60401 1.35191 8.76649 0.451096H0ZM0 2.58279V4.34546C8.3093 4.34546 12.9977 0.526734 12.9977 0.526734C12.9977 0.526734 8.69791 2.58279 0 2.58279ZM0 6.45883L0.827501 6.99748C8.52646 6.69721 12.9977 3.05727 12.9977 3.05727C12.9977 3.05727 8.69791 5.11104 0 5.11104V6.45883Z" fill="#1F1E21"/>
<path d="M27.3868 1.7429C26.8107 2.18149 26.7123 2.80905 26.7123 3.45087V11.0066C26.7123 11.6485 26.8107 12.276 27.3868 12.7146H22.9936C23.5697 12.276 23.6681 11.6485 23.6681 11.0066V3.30825H20.7187V11.0066C20.7187 11.6485 20.8171 12.276 21.3931 12.7146H17C17.576 12.276 17.6745 11.6485 17.6745 11.0066V3.45087C17.6745 2.80548 17.5797 2.17792 17 1.7429H27.3904H27.3868Z" fill="#1F1E21"/>
<path d="M33.9016 1.7429C35.936 1.7429 37.3323 2.99446 37.3323 4.72027C37.3323 7.13426 35.0245 8.26459 32.5709 8.01143C33.6756 7.52649 34.2079 6.66359 34.2079 5.47264C34.2079 3.92155 33.3584 3.38669 32.5709 3.38669H32.4105V11.0066C32.4105 11.6485 32.5053 12.276 33.085 12.7146H28.6918C29.2679 12.276 29.3663 11.6485 29.3663 11.0066V3.45087C29.3663 2.80548 29.2715 2.17792 28.6918 1.7429H33.9053H33.9016Z" fill="#1F1E21"/>
<path d="M44.6239 1.42914C48.4082 1.42914 50.716 3.87522 50.716 7.16637C50.716 10.4575 48.3572 13.032 44.4124 13.032C40.1797 13.032 38.3204 10.101 38.3204 7.34109C38.3204 4.36372 40.5005 1.42914 44.6202 1.42914H44.6239ZM44.7041 11.3097C45.8598 11.3097 47.5077 10.5574 47.5077 7.73332C47.5077 5.44413 46.5306 3.15494 44.4926 3.15494C43.0489 3.15494 41.525 4.16048 41.525 6.90251C41.525 9.97616 43.1619 11.3097 44.7005 11.3097H44.7041Z" fill="#1F1E21"/>
<path d="M71.2088 1.7429L73.677 8.25033L75.7296 1.7429H79.8347C79.2259 2.05669 79.1129 2.58798 79.1931 3.31182L79.9477 10.4147C80.0571 11.4809 80.2029 12.0122 80.7972 12.7182H76.3895C76.7905 12.3117 76.9181 11.8731 76.9181 11.513C76.9181 11.1528 76.8853 10.9496 76.8525 10.618L76.3384 5.50473L73.9979 12.9214C73.1229 12.8501 72.0547 12.4543 71.4167 10.8212L69.4115 5.55108L68.8172 10.8212C68.7188 11.7305 68.7844 12.2796 69.488 12.7182H66.2652C66.6006 12.4044 66.9068 11.9337 67.0527 10.8533L67.9823 3.75039C68.0297 3.34034 68.1756 2.44892 67.3589 1.7429H71.2088Z" fill="#1F1E21"/>
<path d="M55.9622 1.7429L58.4304 8.25033L60.4829 1.7429H64.588C63.9792 2.05669 63.8662 2.58798 63.9464 3.31182L64.7011 10.4147C64.8104 11.4809 64.9563 12.0122 65.5505 12.7182H61.1428C61.5438 12.3117 61.6714 11.8731 61.6714 11.513C61.6714 11.1528 61.6423 10.9496 61.6095 10.618L61.0954 5.50473L58.7548 12.9214C57.8798 12.8501 56.8116 12.4543 56.1736 10.8212L54.1685 5.55108L53.5779 10.8212C53.4794 11.7305 53.545 12.2796 54.2487 12.7182H51.0258C51.3612 12.4044 51.6675 11.9337 51.8133 10.8533L52.743 3.75039C52.7904 3.34034 52.9362 2.44892 52.1159 1.7429H55.9622Z" fill="#1F1E21"/>
<path d="M88.0231 1.74298C88.1835 1.74298 88.2966 1.72514 88.4242 1.67879V4.01434C88.0049 3.38677 87.3997 3.30832 87.0132 3.30832H85.5367V6.05036H87.8627V8.18266C87.4945 7.69772 87.0606 7.61927 86.7252 7.61927H85.5367V10.6787C85.5367 11.0067 85.6825 11.1493 86.7544 11.1493H88.0377C88.7742 11.1493 89.4158 10.7714 89.8497 10.3328L89.208 12.7147H81.8144C82.3904 12.2761 82.4889 11.6485 82.4889 11.0067V3.45095C82.4889 2.80555 82.3941 2.178 81.8144 1.74298H88.0195H88.0231Z" fill="#1F1E21"/>
<path d="M98.84 4.1427C98.614 3.56505 97.3489 3.52939 96.8822 3.52939H95.9088V11.0103C95.9088 11.6521 96.0036 12.2797 96.5833 12.7182H92.1901C92.7661 12.2797 92.8646 11.6521 92.8646 11.0103V3.52939H91.7891C91.0053 3.52939 90.411 3.79682 89.9297 4.25323L90.5568 1.67879C90.6844 1.72514 90.7974 1.74298 90.9578 1.74298H97.8192C97.9796 1.74298 98.089 1.72514 98.2202 1.67879L98.8436 4.1427H98.84Z" fill="#1F1E21"/>
<path d="M103.951 1.74303C103.375 2.18161 103.277 2.80917 103.277 3.45099V8.86019L107.028 1.73946H110.364C109.788 2.17804 109.69 2.80561 109.69 3.44744V11.0032C109.69 11.645 109.785 12.2726 110.364 12.7112H105.971C106.547 12.2726 106.646 11.645 106.646 11.0032V5.59399L102.861 12.7112H99.5582C100.134 12.2726 100.229 11.645 100.229 11.0032V3.44744C100.229 2.80204 100.134 2.17447 99.5582 1.73946H103.951V1.74303Z" fill="#1F1E21"/>
<path d="M112.304 1.67873C113.715 1.60029 113.89 1.42914 115.446 1.42914C118.782 1.42914 119.391 2.95169 119.391 4.03211C119.391 4.81656 119.165 6.14657 117.371 6.61725C118.688 6.70996 120 7.54077 120 9.20596C120 11.2598 118.509 13.032 114.757 13.032C113.587 13.032 112.738 12.8751 111.742 12.3723L111.294 9.89414C112.431 11.1029 113.441 11.3062 114.324 11.3062C116.744 11.3062 116.952 10.0047 116.952 9.42346C116.952 8.62474 116.617 7.63348 115.06 7.63348C114.593 7.63348 114.068 7.67983 113.507 7.97935V5.75078C113.733 5.82923 114.054 5.90767 114.531 5.90767C116.23 5.90767 116.391 5.00198 116.391 4.42077C116.391 3.21199 115.414 3.15137 114.994 3.15137C114.433 3.15137 113.343 3.25835 112.06 4.11055L112.3 1.67873H112.304Z" fill="#1F1E21"/>
</svg>
