<svg width="167" height="40" viewBox="0 0 167 40" fill="none" xmlns="http://www.w3.org/2000/svg">
<rect width="167" height="40" rx="20" fill="#151517"/>
<path d="M29.264 16.432C28.7413 16.432 28.2887 16.53 27.906 16.726C27.5327 16.922 27.2247 17.1833 26.982 17.51C26.7393 17.8367 26.5573 18.2193 26.436 18.658C26.324 19.0873 26.268 19.54 26.268 20.016C26.268 20.5013 26.3287 20.9633 26.45 21.402C26.5713 21.8407 26.7533 22.228 26.996 22.564C27.248 22.8907 27.5653 23.152 27.948 23.348C28.3307 23.544 28.7833 23.642 29.306 23.642C29.95 23.642 30.4867 23.502 30.916 23.222C31.3547 22.942 31.63 22.564 31.742 22.088H33.366C33.2913 22.564 33.1327 22.9887 32.89 23.362C32.6567 23.7353 32.3627 24.0527 32.008 24.314C31.6533 24.566 31.2427 24.762 30.776 24.902C30.3093 25.0327 29.81 25.098 29.278 25.098C28.5033 25.098 27.822 24.972 27.234 24.72C26.6553 24.468 26.17 24.118 25.778 23.67C25.386 23.222 25.092 22.69 24.896 22.074C24.7 21.458 24.602 20.7813 24.602 20.044C24.602 19.3253 24.7 18.658 24.896 18.042C25.1013 17.4167 25.4 16.88 25.792 16.432C26.184 15.9747 26.6693 15.62 27.248 15.368C27.836 15.1067 28.5173 14.976 29.292 14.976C30.384 14.976 31.2847 15.2327 31.994 15.746C32.7033 16.2593 33.1327 17.0153 33.282 18.014H31.686C31.5647 17.5287 31.294 17.146 30.874 16.866C30.454 16.5767 29.9173 16.432 29.264 16.432ZM36.2315 19.148C36.5302 18.7747 36.9035 18.5087 37.3515 18.35C37.7995 18.182 38.2522 18.098 38.7095 18.098C39.2135 18.098 39.6615 18.1773 40.0535 18.336C40.4548 18.4947 40.7955 18.7187 41.0755 19.008C41.3555 19.2973 41.5702 19.6473 41.7195 20.058C41.8688 20.4593 41.9435 20.912 41.9435 21.416C41.9435 21.9573 41.8595 22.4567 41.6915 22.914C41.5328 23.3713 41.2948 23.7633 40.9775 24.09C40.6695 24.4073 40.2915 24.6547 39.8435 24.832C39.4048 25.0093 38.9055 25.098 38.3455 25.098C37.6082 25.0887 37.0015 24.9393 36.5255 24.65C36.0588 24.3607 35.6902 23.9873 35.4195 23.53C35.1488 23.0727 34.9622 22.5593 34.8595 21.99C34.7568 21.4113 34.7055 20.828 34.7055 20.24C34.7055 19.652 34.7475 19.05 34.8315 18.434C34.9248 17.818 35.1068 17.272 35.3775 16.796C35.6015 16.4227 35.8582 16.1287 36.1475 15.914C36.4462 15.69 36.7728 15.522 37.1275 15.41C37.4822 15.2887 37.8602 15.2 38.2615 15.144C38.6628 15.088 39.0782 15.032 39.5075 14.976C39.8342 14.9387 40.1655 14.9013 40.5015 14.864C40.8468 14.8267 41.1828 14.752 41.5095 14.64V16.166C41.3415 16.2407 41.1082 16.3013 40.8095 16.348C40.5108 16.3853 40.1935 16.4227 39.8575 16.46C39.5215 16.488 39.1902 16.5207 38.8635 16.558C38.5368 16.586 38.2475 16.6187 37.9955 16.656C37.6968 16.7027 37.4308 16.8053 37.1975 16.964C36.9735 17.1133 36.7915 17.3 36.6515 17.524C36.5115 17.7387 36.4088 17.9907 36.3435 18.28C36.2782 18.56 36.2408 18.8493 36.2315 19.148ZM38.3875 23.712C38.7048 23.712 38.9848 23.6513 39.2275 23.53C39.4795 23.4087 39.6895 23.2547 39.8575 23.068C40.0255 22.872 40.1515 22.648 40.2355 22.396C40.3195 22.1347 40.3615 21.864 40.3615 21.584C40.3615 21.2947 40.3148 21.024 40.2215 20.772C40.1375 20.5107 40.0115 20.2913 39.8435 20.114C39.6848 19.9273 39.4888 19.7827 39.2555 19.68C39.0222 19.5773 38.7562 19.526 38.4575 19.526C38.1495 19.526 37.8695 19.5773 37.6175 19.68C37.3748 19.7733 37.1648 19.9133 36.9875 20.1C36.8195 20.2773 36.6842 20.492 36.5815 20.744C36.4788 20.996 36.4228 21.2667 36.4135 21.556C36.4135 21.836 36.4508 22.1067 36.5255 22.368C36.6002 22.62 36.7168 22.844 36.8755 23.04C37.0435 23.236 37.2488 23.3993 37.4915 23.53C37.7435 23.6513 38.0422 23.712 38.3875 23.712ZM44.9347 27.87H43.3387V17.622H44.8507L44.9347 18.672C45.2054 18.2893 45.5554 18 45.9847 17.804C46.4234 17.5987 46.8807 17.496 47.3567 17.496C47.8607 17.496 48.3134 17.5893 48.7147 17.776C49.116 17.9533 49.4567 18.2053 49.7367 18.532C50.026 18.8587 50.2407 19.2553 50.3807 19.722C50.53 20.1793 50.6047 20.702 50.6047 21.29C50.6047 21.8407 50.5347 22.3493 50.3947 22.816C50.2547 23.2827 50.0447 23.6887 49.7647 24.034C49.494 24.37 49.1534 24.6313 48.7427 24.818C48.3414 25.0047 47.8514 25.098 47.2727 25.098C46.8247 25.098 46.3954 25.028 45.9847 24.888C45.5834 24.7387 45.2334 24.496 44.9347 24.16V27.87ZM47.0207 23.712C47.366 23.712 47.6647 23.6513 47.9167 23.53C48.1687 23.3993 48.374 23.2267 48.5327 23.012C48.7007 22.7973 48.822 22.5453 48.8967 22.256C48.9807 21.9667 49.0227 21.654 49.0227 21.318C49.0227 20.982 48.9807 20.6693 48.8967 20.38C48.822 20.0813 48.7007 19.8247 48.5327 19.61C48.374 19.3953 48.164 19.2273 47.9027 19.106C47.6507 18.9847 47.3474 18.924 46.9927 18.924C46.6754 18.924 46.3814 18.9893 46.1107 19.12C45.8494 19.2507 45.63 19.4233 45.4527 19.638C45.2754 19.8527 45.14 20.1093 45.0467 20.408C44.9627 20.6973 44.9207 20.996 44.9207 21.304C44.9207 21.64 44.9627 21.9573 45.0467 22.256C45.1307 22.5453 45.2567 22.7973 45.4247 23.012C45.602 23.2173 45.8214 23.3853 46.0827 23.516C46.344 23.6467 46.6567 23.712 47.0207 23.712ZM55.3247 17.496C55.9127 17.496 56.4307 17.5893 56.8787 17.776C57.3267 17.9627 57.7047 18.224 58.0127 18.56C58.33 18.8867 58.568 19.2833 58.7267 19.75C58.8853 20.2167 58.9647 20.7347 58.9647 21.304C58.9647 21.8827 58.8853 22.4053 58.7267 22.872C58.5773 23.3293 58.3487 23.726 58.0407 24.062C57.7327 24.398 57.35 24.6547 56.8927 24.832C56.4447 25.0093 55.922 25.098 55.3247 25.098C54.7367 25.098 54.2187 25.0093 53.7707 24.832C53.3227 24.6453 52.9447 24.3887 52.6367 24.062C52.338 23.726 52.1093 23.3247 51.9507 22.858C51.8013 22.3913 51.7267 21.8733 51.7267 21.304C51.7267 20.7347 51.8013 20.2167 51.9507 19.75C52.1093 19.2833 52.3427 18.8867 52.6507 18.56C52.9587 18.224 53.3367 17.9627 53.7847 17.776C54.2327 17.5893 54.746 17.496 55.3247 17.496ZM55.3247 23.712C55.6887 23.712 55.9967 23.6513 56.2487 23.53C56.51 23.3993 56.72 23.2267 56.8787 23.012C57.0467 22.7973 57.168 22.5453 57.2427 22.256C57.3267 21.9667 57.3687 21.654 57.3687 21.318C57.3687 20.982 57.3267 20.6693 57.2427 20.38C57.168 20.0813 57.0467 19.8247 56.8787 19.61C56.72 19.3953 56.51 19.2273 56.2487 19.106C55.9967 18.9847 55.6887 18.924 55.3247 18.924C54.97 18.924 54.662 18.9847 54.4007 19.106C54.1487 19.2273 53.9387 19.3953 53.7707 19.61C53.612 19.8247 53.4907 20.0813 53.4067 20.38C53.332 20.6693 53.2947 20.982 53.2947 21.318C53.2947 21.654 53.332 21.9667 53.4067 22.256C53.4907 22.5453 53.612 22.7973 53.7707 23.012C53.9387 23.2267 54.1487 23.3993 54.4007 23.53C54.662 23.6513 54.97 23.712 55.3247 23.712ZM63.6629 25.098C63.0749 25.098 62.5569 25.0093 62.1089 24.832C61.6702 24.6453 61.3015 24.3887 61.0029 24.062C60.7135 23.726 60.4942 23.3293 60.3449 22.872C60.2049 22.4053 60.1349 21.892 60.1349 21.332C60.1349 20.772 60.2095 20.2587 60.3589 19.792C60.5175 19.3253 60.7509 18.924 61.0589 18.588C61.3669 18.252 61.7402 17.986 62.1789 17.79C62.6175 17.594 63.1262 17.496 63.7049 17.496C64.1155 17.496 64.4935 17.5427 64.8389 17.636C65.1935 17.72 65.5062 17.8647 65.7769 18.07C66.0475 18.266 66.2809 18.518 66.4769 18.826C66.6729 19.1247 66.8082 19.4887 66.8829 19.918H65.2309C65.1469 19.6007 64.9649 19.358 64.6849 19.19C64.4142 19.0127 64.0782 18.924 63.6769 18.924C63.3222 18.924 63.0189 18.9893 62.7669 19.12C62.5149 19.2507 62.3095 19.428 62.1509 19.652C61.9922 19.876 61.8755 20.1373 61.8009 20.436C61.7355 20.7253 61.7029 21.0287 61.7029 21.346C61.7029 21.6727 61.7402 21.9807 61.8149 22.27C61.8895 22.5593 62.0062 22.8113 62.1649 23.026C62.3329 23.2313 62.5429 23.3993 62.7949 23.53C63.0469 23.6513 63.3502 23.712 63.7049 23.712C64.1249 23.712 64.4702 23.6187 64.7409 23.432C65.0209 23.2453 65.1982 22.998 65.2729 22.69H66.9109C66.8362 23.11 66.6962 23.474 66.4909 23.782C66.2949 24.09 66.0522 24.342 65.7629 24.538C65.4735 24.734 65.1515 24.8787 64.7969 24.972C64.4422 25.056 64.0642 25.098 63.6629 25.098ZM69.7602 25H68.2762V17.622H69.8722V22.69L73.6242 17.622H75.0662V25H73.4702V20.03C73.4609 20.0487 72.2242 21.7053 69.7602 25ZM82.5615 17.622V19.008H80.0695V25H78.4875V19.008H75.9955V17.622H82.5615ZM83.4793 17.622H85.0753V20.114H86.7273C87.1567 20.114 87.544 20.1513 87.8893 20.226C88.244 20.2913 88.5473 20.4173 88.7993 20.604C89.0607 20.7907 89.2613 21.0333 89.4013 21.332C89.5507 21.6307 89.6253 21.9993 89.6253 22.438C89.6253 22.9327 89.532 23.348 89.3453 23.684C89.168 24.0107 88.93 24.272 88.6313 24.468C88.342 24.664 88.0107 24.804 87.6373 24.888C87.264 24.9627 86.886 25 86.5033 25H83.4793V17.622ZM86.3213 23.67C86.536 23.67 86.746 23.656 86.9513 23.628C87.166 23.5907 87.348 23.5347 87.4973 23.46C87.656 23.376 87.782 23.2593 87.8753 23.11C87.978 22.9607 88.034 22.7647 88.0433 22.522C88.0433 22.2607 87.9873 22.06 87.8753 21.92C87.7633 21.78 87.6233 21.6773 87.4553 21.612C87.2873 21.5467 87.1007 21.5093 86.8953 21.5C86.6993 21.4907 86.5173 21.486 86.3493 21.486H85.0753V23.656L86.3213 23.67ZM94.827 25V17.622H101.295V25H99.699V19.008H96.423V25H94.827ZM107.79 24.09C107.547 24.4353 107.225 24.692 106.824 24.86C106.423 25.0187 105.975 25.098 105.48 25.098C105.088 25.098 104.729 25.0513 104.402 24.958C104.085 24.8647 103.805 24.7247 103.562 24.538C103.319 24.342 103.128 24.104 102.988 23.824C102.848 23.5347 102.778 23.208 102.778 22.844C102.778 22.4427 102.857 22.102 103.016 21.822C103.175 21.5327 103.389 21.2993 103.66 21.122C103.94 20.9447 104.267 20.814 104.64 20.73C105.013 20.6367 105.405 20.59 105.816 20.59H107.706C107.706 20.0487 107.585 19.6287 107.342 19.33C107.099 19.0313 106.675 18.8773 106.068 18.868C105.713 18.868 105.405 18.9287 105.144 19.05C104.892 19.1713 104.724 19.372 104.64 19.652H103.002C103.058 19.26 103.184 18.9287 103.38 18.658C103.585 18.3873 103.828 18.1633 104.108 17.986C104.397 17.8087 104.715 17.6827 105.06 17.608C105.415 17.5333 105.769 17.496 106.124 17.496C106.581 17.496 107.006 17.5567 107.398 17.678C107.79 17.7993 108.131 18.0047 108.42 18.294C108.747 18.63 108.966 19.0313 109.078 19.498C109.19 19.9647 109.246 20.4733 109.246 21.024V25H107.86L107.79 24.09ZM107.706 21.724H106.166C105.895 21.724 105.625 21.7473 105.354 21.794C105.083 21.8313 104.85 21.9293 104.654 22.088C104.467 22.2373 104.374 22.4567 104.374 22.746C104.374 23.1007 104.5 23.3713 104.752 23.558C105.013 23.7353 105.331 23.824 105.704 23.824C105.993 23.824 106.259 23.7867 106.502 23.712C106.754 23.6373 106.969 23.516 107.146 23.348C107.323 23.1707 107.459 22.9513 107.552 22.69C107.655 22.4193 107.706 22.0973 107.706 21.724ZM112.556 27.87H110.96V17.622H112.472L112.556 18.672C112.826 18.2893 113.176 18 113.606 17.804C114.044 17.5987 114.502 17.496 114.978 17.496C115.482 17.496 115.934 17.5893 116.336 17.776C116.737 17.9533 117.078 18.2053 117.358 18.532C117.647 18.8587 117.862 19.2553 118.002 19.722C118.151 20.1793 118.226 20.702 118.226 21.29C118.226 21.8407 118.156 22.3493 118.016 22.816C117.876 23.2827 117.666 23.6887 117.386 24.034C117.115 24.37 116.774 24.6313 116.364 24.818C115.962 25.0047 115.472 25.098 114.894 25.098C114.446 25.098 114.016 25.028 113.606 24.888C113.204 24.7387 112.854 24.496 112.556 24.16V27.87ZM114.642 23.712C114.987 23.712 115.286 23.6513 115.538 23.53C115.79 23.3993 115.995 23.2267 116.154 23.012C116.322 22.7973 116.443 22.5453 116.518 22.256C116.602 21.9667 116.644 21.654 116.644 21.318C116.644 20.982 116.602 20.6693 116.518 20.38C116.443 20.0813 116.322 19.8247 116.154 19.61C115.995 19.3953 115.785 19.2273 115.524 19.106C115.272 18.9847 114.968 18.924 114.614 18.924C114.296 18.924 114.002 18.9893 113.732 19.12C113.47 19.2507 113.251 19.4233 113.074 19.638C112.896 19.8527 112.761 20.1093 112.668 20.408C112.584 20.6973 112.542 20.996 112.542 21.304C112.542 21.64 112.584 21.9573 112.668 22.256C112.752 22.5453 112.878 22.7973 113.046 23.012C113.223 23.2173 113.442 23.3853 113.704 23.516C113.965 23.6467 114.278 23.712 114.642 23.712ZM122.946 17.496C123.534 17.496 124.052 17.5893 124.5 17.776C124.948 17.9627 125.326 18.224 125.634 18.56C125.951 18.8867 126.189 19.2833 126.348 19.75C126.506 20.2167 126.586 20.7347 126.586 21.304C126.586 21.8827 126.506 22.4053 126.348 22.872C126.198 23.3293 125.97 23.726 125.662 24.062C125.354 24.398 124.971 24.6547 124.514 24.832C124.066 25.0093 123.543 25.098 122.946 25.098C122.358 25.098 121.84 25.0093 121.392 24.832C120.944 24.6453 120.566 24.3887 120.258 24.062C119.959 23.726 119.73 23.3247 119.572 22.858C119.422 22.3913 119.348 21.8733 119.348 21.304C119.348 20.7347 119.422 20.2167 119.572 19.75C119.73 19.2833 119.964 18.8867 120.272 18.56C120.58 18.224 120.958 17.9627 121.406 17.776C121.854 17.5893 122.367 17.496 122.946 17.496ZM122.946 23.712C123.31 23.712 123.618 23.6513 123.87 23.53C124.131 23.3993 124.341 23.2267 124.5 23.012C124.668 22.7973 124.789 22.5453 124.864 22.256C124.948 21.9667 124.99 21.654 124.99 21.318C124.99 20.982 124.948 20.6693 124.864 20.38C124.789 20.0813 124.668 19.8247 124.5 19.61C124.341 19.3953 124.131 19.2273 123.87 19.106C123.618 18.9847 123.31 18.924 122.946 18.924C122.591 18.924 122.283 18.9847 122.022 19.106C121.77 19.2273 121.56 19.3953 121.392 19.61C121.233 19.8247 121.112 20.0813 121.028 20.38C120.953 20.6693 120.916 20.982 120.916 21.318C120.916 21.654 120.953 21.9667 121.028 22.256C121.112 22.5453 121.233 22.7973 121.392 23.012C121.56 23.2267 121.77 23.3993 122.022 23.53C122.283 23.6513 122.591 23.712 122.946 23.712ZM128.654 21.486C128.7 20.8513 128.728 20.2213 128.738 19.596C128.756 18.9613 128.775 18.3033 128.794 17.622H134.31V25H132.7V19.008H130.278C130.259 19.4653 130.24 19.9227 130.222 20.38C130.212 20.828 130.194 21.276 130.166 21.724C130.156 21.892 130.138 22.0927 130.11 22.326C130.091 22.55 130.063 22.7787 130.026 23.012C129.988 23.236 129.932 23.4507 129.858 23.656C129.783 23.852 129.69 24.034 129.578 24.202C129.382 24.482 129.12 24.6873 128.794 24.818C128.476 24.9393 128.108 25 127.688 25H127.296V23.628C127.576 23.628 127.8 23.5627 127.968 23.432C128.145 23.292 128.276 23.1193 128.36 22.914C128.453 22.6993 128.518 22.4707 128.556 22.228C128.602 21.976 128.635 21.7287 128.654 21.486ZM136.048 17.622H137.644V20.114H139.296C139.725 20.114 140.112 20.1513 140.458 20.226C140.812 20.2913 141.116 20.4173 141.368 20.604C141.629 20.7907 141.83 21.0333 141.97 21.332C142.119 21.6307 142.194 21.9993 142.194 22.438C142.194 22.9327 142.1 23.348 141.914 23.684C141.736 24.0107 141.498 24.272 141.2 24.468C140.91 24.664 140.579 24.804 140.206 24.888C139.832 24.9627 139.454 25 139.072 25H136.048V17.622ZM138.89 23.67C139.104 23.67 139.314 23.656 139.52 23.628C139.734 23.5907 139.916 23.5347 140.066 23.46C140.224 23.376 140.35 23.2593 140.444 23.11C140.546 22.9607 140.602 22.7647 140.612 22.522C140.612 22.2607 140.556 22.06 140.444 21.92C140.332 21.78 140.192 21.6773 140.024 21.612C139.856 21.5467 139.669 21.5093 139.464 21.5C139.268 21.4907 139.086 21.486 138.918 21.486H137.644V23.656L138.89 23.67Z" fill="white"/>
</svg>
