<svg width="214" height="50" viewBox="0 0 214 50" fill="none" xmlns="http://www.w3.org/2000/svg">
<rect width="214" height="50" fill="white"/>
<path d="M26.2039 27.642C27.1465 27.642 27.8932 27.3153 28.4439 26.662C29.0039 25.9993 29.2839 25.122 29.2839 24.03V23.918C29.2839 22.8633 29.0039 22.0047 28.4439 21.342C27.8932 20.67 27.1372 20.334 26.1759 20.334C25.2052 20.334 24.4399 20.6607 23.8799 21.314C23.3292 21.9673 23.0539 22.84 23.0539 23.932V24.044C23.0539 25.1267 23.3479 25.9993 23.9359 26.662C24.5239 27.3153 25.2799 27.642 26.2039 27.642ZM26.1759 29.14C24.6639 29.14 23.4412 28.6593 22.5079 27.698C21.5745 26.7367 21.1079 25.5233 21.1079 24.058V23.946C21.1079 22.4713 21.5792 21.2533 22.5219 20.292C23.4739 19.3307 24.6919 18.85 26.1759 18.85C27.6599 18.85 28.8685 19.326 29.8019 20.278C30.7445 21.2207 31.2159 22.4293 31.2159 23.904V24.016C31.2159 25.4907 30.7492 26.7133 29.8159 27.684C28.8919 28.6547 27.6785 29.14 26.1759 29.14ZM38.4166 22.938H36.1766V29H34.4826V22.938H32.2426V21.678H38.4166V22.938ZM41.4315 25.416V29H39.7375V21.678H41.4315V24.926L44.0495 21.678H45.8975L43.0555 25.066L46.1355 29H44.1755L41.4315 25.416ZM47.298 21.678H48.992V22.854C49.2067 22.4807 49.5287 22.168 49.958 21.916C50.3967 21.6547 50.8727 21.524 51.386 21.524C52.3287 21.524 53.1034 21.86 53.71 22.532C54.326 23.1947 54.634 24.1 54.634 25.248V25.36C54.634 26.5173 54.3307 27.4367 53.724 28.118C53.1267 28.7993 52.3474 29.14 51.386 29.14C50.826 29.14 50.336 29.0233 49.916 28.79C49.5054 28.5473 49.1974 28.2347 48.992 27.852V31.506H47.298V21.678ZM50.966 27.796C51.5914 27.796 52.0674 27.5907 52.394 27.18C52.73 26.7693 52.898 26.172 52.898 25.388V25.276C52.898 24.492 52.716 23.8947 52.352 23.484C51.9974 23.064 51.5307 22.854 50.952 22.854C50.336 22.854 49.846 23.0593 49.482 23.47C49.118 23.8807 48.936 24.4827 48.936 25.276V25.388C48.936 26.1813 49.1134 26.7833 49.468 27.194C49.832 27.5953 50.3314 27.796 50.966 27.796ZM62.7234 21.678H64.4174V29H62.7234V21.678ZM56.1574 21.678H57.8514V24.086H59.0974C59.9467 24.086 60.6281 24.2913 61.1414 24.702C61.6547 25.1127 61.9114 25.7193 61.9114 26.522V26.564C61.9114 27.3573 61.6547 27.964 61.1414 28.384C60.6374 28.7947 59.9421 29 59.0554 29H56.1574V21.678ZM58.8594 27.768C59.3261 27.768 59.6667 27.6747 59.8814 27.488C60.1054 27.292 60.2174 26.9793 60.2174 26.55V26.508C60.2174 25.7147 59.7647 25.318 58.8594 25.318H57.8514V27.768H58.8594ZM71.9127 22.938H69.6727V29H67.9787V22.938H65.7387V21.678H71.9127V22.938ZM73.2336 21.678H74.9276V24.086H76.2436C77.0929 24.086 77.7743 24.3007 78.2876 24.73C78.8009 25.1593 79.0576 25.7707 79.0576 26.564V26.606C79.0576 27.4087 78.8056 28.0107 78.3016 28.412C77.7976 28.804 77.0976 29 76.2016 29H73.2336V21.678ZM75.9916 27.782C76.8969 27.782 77.3496 27.3853 77.3496 26.592V26.55C77.3496 25.7287 76.8969 25.318 75.9916 25.318H74.9276V27.782H75.9916ZM85.8446 26.06C85.7513 27.1053 85.546 27.8753 85.2286 28.37C84.9206 28.8647 84.4353 29.112 83.7726 29.112C83.5486 29.112 83.39 29.098 83.2966 29.07C83.278 29.0607 83.25 29.0467 83.2126 29.028C83.1846 29.0187 83.166 29.014 83.1566 29.014V27.6L83.2406 27.628C83.334 27.6467 83.418 27.656 83.4926 27.656C83.754 27.656 83.9453 27.502 84.0666 27.194C84.1973 26.8767 84.2953 26.4053 84.3606 25.78C84.3793 25.6027 84.3933 25.374 84.4026 25.094C84.412 24.814 84.4213 24.4967 84.4306 24.142C84.4493 23.778 84.4633 23.4887 84.4726 23.274L84.5146 21.678H89.8486V29H88.1686V22.938H85.9986C85.924 24.6273 85.8726 25.668 85.8446 26.06ZM91.8684 29V21.678H93.5624V26.858L96.7264 21.678H98.4064V29H96.7264V23.82L93.5624 29H91.8684ZM104.643 29V25.752C104.148 26.3027 103.439 26.578 102.515 26.578C101.796 26.578 101.217 26.3493 100.779 25.892C100.34 25.4253 100.121 24.7253 100.121 23.792V21.678H101.801V23.61C101.801 24.17 101.908 24.5807 102.123 24.842C102.337 25.094 102.673 25.22 103.131 25.22C103.812 25.22 104.316 24.9867 104.643 24.52V21.678H106.337V29H104.643ZM113.089 25.892H110.051V29H108.357V21.678H110.051V24.632H113.089V21.678H114.783V29H113.089V25.892ZM123.358 21.678H125.052V29H123.358V21.678ZM116.792 21.678H118.486V24.086H119.732C120.582 24.086 121.263 24.2913 121.776 24.702C122.29 25.1127 122.546 25.7193 122.546 26.522V26.564C122.546 27.3573 122.29 27.964 121.776 28.384C121.272 28.7947 120.577 29 119.69 29H116.792V21.678ZM119.494 27.768C119.961 27.768 120.302 27.6747 120.516 27.488C120.74 27.292 120.852 26.9793 120.852 26.55V26.508C120.852 25.7147 120.4 25.318 119.494 25.318H118.486V27.768H119.494ZM131.749 19.97C131.376 20.3247 130.895 20.502 130.307 20.502C129.719 20.502 129.243 20.3247 128.879 19.97C128.515 19.606 128.315 19.13 128.277 18.542H129.551C129.607 19.1487 129.859 19.452 130.307 19.452C130.783 19.452 131.054 19.1487 131.119 18.542H132.379C132.342 19.13 132.132 19.606 131.749 19.97ZM127.073 29V21.678H128.767V26.858L131.931 21.678H133.611V29H131.931V23.82L128.767 29H127.073ZM140.648 25.416V29H138.954V21.678H140.648V24.926L143.266 21.678H145.114L142.272 25.066L145.352 29H143.392L140.648 25.416ZM148.296 29.14C147.577 29.14 146.989 28.9627 146.532 28.608C146.075 28.244 145.846 27.698 145.846 26.97C145.846 26.1673 146.187 25.5793 146.868 25.206C147.559 24.8327 148.469 24.646 149.598 24.646H150.508V24.268C150.508 23.7547 150.41 23.3813 150.214 23.148C150.018 22.9147 149.673 22.798 149.178 22.798C148.347 22.798 147.881 23.1807 147.778 23.946H146.14C146.215 23.134 146.537 22.5273 147.106 22.126C147.675 21.7247 148.399 21.524 149.276 21.524C151.227 21.524 152.202 22.4153 152.202 24.198V29H150.536V28.104C149.995 28.7947 149.248 29.14 148.296 29.14ZM148.702 27.922C149.243 27.922 149.677 27.7913 150.004 27.53C150.34 27.2687 150.508 26.9047 150.508 26.438V25.71H149.64C148.231 25.71 147.526 26.1067 147.526 26.9C147.526 27.5813 147.918 27.922 148.702 27.922ZM157.476 29.14C156.309 29.14 155.39 28.7713 154.718 28.034C154.055 27.2873 153.724 26.1673 153.724 24.674V24.156C153.724 20.4227 155.138 18.486 157.966 18.346L158.414 18.332C159.524 18.276 160.248 18.1873 160.584 18.066V19.396C160.145 19.5827 159.412 19.704 158.386 19.76L158.022 19.788C157.042 19.844 156.318 20.1613 155.852 20.74C155.394 21.3187 155.119 22.154 155.026 23.246H155.096C155.646 22.1727 156.566 21.636 157.854 21.636C158.862 21.636 159.678 21.9813 160.304 22.672C160.929 23.3533 161.242 24.226 161.242 25.29V25.374C161.242 26.522 160.887 27.4367 160.178 28.118C159.468 28.7993 158.568 29.14 157.476 29.14ZM155.992 27.194C156.356 27.614 156.855 27.824 157.49 27.824C158.124 27.824 158.619 27.614 158.974 27.194C159.328 26.7647 159.506 26.1627 159.506 25.388V25.332C159.506 24.576 159.338 23.9927 159.002 23.582C158.675 23.1713 158.194 22.966 157.56 22.966C156.906 22.966 156.393 23.1807 156.02 23.61C155.646 24.03 155.46 24.618 155.46 25.374V25.444C155.46 26.1813 155.637 26.7647 155.992 27.194ZM162.771 29V21.678H164.465V26.858L167.629 21.678H169.309V29H167.629V23.82L164.465 29H162.771ZM175.993 25.892H172.955V29H171.261V21.678H172.955V24.632H175.993V21.678H177.687V29H175.993V25.892ZM182.916 29.14C181.815 29.14 180.919 28.804 180.228 28.132C179.547 27.46 179.206 26.5547 179.206 25.416V25.304C179.206 24.184 179.547 23.274 180.228 22.574C180.919 21.874 181.792 21.524 182.846 21.524C183.836 21.524 184.657 21.832 185.31 22.448C185.973 23.064 186.304 23.988 186.304 25.22V25.71H180.942C180.97 26.41 181.152 26.9467 181.488 27.32C181.834 27.6933 182.324 27.88 182.958 27.88C183.948 27.88 184.508 27.5067 184.638 26.76H186.276C186.155 27.5347 185.8 28.1273 185.212 28.538C184.634 28.9393 183.868 29.14 182.916 29.14ZM184.624 24.576C184.531 23.3627 183.938 22.756 182.846 22.756C182.342 22.756 181.922 22.9193 181.586 23.246C181.26 23.5633 181.054 24.0067 180.97 24.576H184.624ZM193.223 22.938H190.983V29H189.289V22.938H187.049V21.678H193.223V22.938Z" fill="#3AB463"/>
</svg>
