<svg width="173" height="50" viewBox="0 0 173 50" fill="none" xmlns="http://www.w3.org/2000/svg">
<rect width="173" height="50" fill="#3AB463"/>
<path d="M21.5718 18.99H25.1558C27.3398 18.99 28.4318 19.858 28.4318 21.594V21.65C28.4318 22.742 27.9045 23.4513 26.8498 23.778C27.5312 23.9273 28.0352 24.1933 28.3618 24.576C28.6885 24.9493 28.8518 25.472 28.8518 26.144V26.2C28.8518 27.124 28.5578 27.824 27.9698 28.3C27.3818 28.7667 26.5325 29 25.4218 29H21.5718V18.99ZM25.1978 27.67C26.4112 27.67 27.0178 27.138 27.0178 26.074V26.018C27.0178 25.486 26.8638 25.094 26.5558 24.842C26.2478 24.59 25.7532 24.464 25.0718 24.464H23.3918V27.67H25.1978ZM24.9318 23.204C25.5385 23.204 25.9725 23.0873 26.2338 22.854C26.5045 22.6207 26.6398 22.2473 26.6398 21.734V21.678C26.6398 21.202 26.4998 20.8567 26.2198 20.642C25.9398 20.4273 25.5012 20.32 24.9038 20.32H23.3918V23.204H24.9318ZM37.0076 21.678H38.7016V29H37.0076V21.678ZM30.4416 21.678H32.1356V24.086H33.3816C34.2309 24.086 34.9123 24.2913 35.4256 24.702C35.9389 25.1127 36.1956 25.7193 36.1956 26.522V26.564C36.1956 27.3573 35.9389 27.964 35.4256 28.384C34.9216 28.7947 34.2263 29 33.3396 29H30.4416V21.678ZM33.1436 27.768C33.6103 27.768 33.9509 27.6747 34.1656 27.488C34.3896 27.292 34.5016 26.9793 34.5016 26.55V26.508C34.5016 25.7147 34.0489 25.318 33.1436 25.318H32.1356V27.768H33.1436ZM44.0548 29.14C42.8882 29.14 41.9688 28.7713 41.2968 28.034C40.6342 27.2873 40.3028 26.1673 40.3028 24.674V24.156C40.3028 20.4227 41.7168 18.486 44.5448 18.346L44.9928 18.332C46.1035 18.276 46.8268 18.1873 47.1628 18.066V19.396C46.7242 19.5827 45.9915 19.704 44.9648 19.76L44.6008 19.788C43.6208 19.844 42.8975 20.1613 42.4308 20.74C41.9735 21.3187 41.6982 22.154 41.6048 23.246H41.6748C42.2255 22.1727 43.1448 21.636 44.4328 21.636C45.4408 21.636 46.2575 21.9813 46.8828 22.672C47.5082 23.3533 47.8208 24.226 47.8208 25.29V25.374C47.8208 26.522 47.4662 27.4367 46.7568 28.118C46.0475 28.7993 45.1468 29.14 44.0548 29.14ZM42.5708 27.194C42.9348 27.614 43.4342 27.824 44.0688 27.824C44.7035 27.824 45.1982 27.614 45.5528 27.194C45.9075 26.7647 46.0848 26.1627 46.0848 25.388V25.332C46.0848 24.576 45.9168 23.9927 45.5808 23.582C45.2542 23.1713 44.7735 22.966 44.1388 22.966C43.4855 22.966 42.9722 23.1807 42.5988 23.61C42.2255 24.03 42.0388 24.618 42.0388 25.374V25.444C42.0388 26.1813 42.2162 26.7647 42.5708 27.194ZM49.3498 21.678H51.0438V22.854C51.2585 22.4807 51.5805 22.168 52.0098 21.916C52.4485 21.6547 52.9245 21.524 53.4378 21.524C54.3805 21.524 55.1551 21.86 55.7618 22.532C56.3778 23.1947 56.6858 24.1 56.6858 25.248V25.36C56.6858 26.5173 56.3825 27.4367 55.7758 28.118C55.1785 28.7993 54.3991 29.14 53.4378 29.14C52.8778 29.14 52.3878 29.0233 51.9678 28.79C51.5571 28.5473 51.2491 28.2347 51.0438 27.852V31.506H49.3498V21.678ZM53.0178 27.796C53.6431 27.796 54.1191 27.5907 54.4458 27.18C54.7818 26.7693 54.9498 26.172 54.9498 25.388V25.276C54.9498 24.492 54.7678 23.8947 54.4038 23.484C54.0491 23.064 53.5825 22.854 53.0038 22.854C52.3878 22.854 51.8978 23.0593 51.5338 23.47C51.1698 23.8807 50.9878 24.4827 50.9878 25.276V25.388C50.9878 26.1813 51.1651 26.7833 51.5198 27.194C51.8838 27.5953 52.3831 27.796 53.0178 27.796ZM60.1272 29.14C59.4085 29.14 58.8205 28.9627 58.3632 28.608C57.9058 28.244 57.6772 27.698 57.6772 26.97C57.6772 26.1673 58.0178 25.5793 58.6992 25.206C59.3898 24.8327 60.2998 24.646 61.4292 24.646H62.3392V24.268C62.3392 23.7547 62.2412 23.3813 62.0452 23.148C61.8492 22.9147 61.5038 22.798 61.0092 22.798C60.1785 22.798 59.7118 23.1807 59.6092 23.946H57.9712C58.0458 23.134 58.3678 22.5273 58.9372 22.126C59.5065 21.7247 60.2298 21.524 61.1072 21.524C63.0578 21.524 64.0332 22.4153 64.0332 24.198V29H62.3672V28.104C61.8258 28.7947 61.0792 29.14 60.1272 29.14ZM60.5332 27.922C61.0745 27.922 61.5085 27.7913 61.8352 27.53C62.1712 27.2687 62.3392 26.9047 62.3392 26.438V25.71H61.4712C60.0618 25.71 59.3572 26.1067 59.3572 26.9C59.3572 27.5813 59.7492 27.922 60.5332 27.922ZM71.3804 22.938H69.1404V29H67.4464V22.938H65.2064V21.678H71.3804V22.938ZM72.7014 21.678H74.3954V24.086H75.7114C76.5607 24.086 77.242 24.3007 77.7554 24.73C78.2687 25.1593 78.5254 25.7707 78.5254 26.564V26.606C78.5254 27.4087 78.2734 28.0107 77.7694 28.412C77.2654 28.804 76.5654 29 75.6694 29H72.7014V21.678ZM75.4594 27.782C76.3647 27.782 76.8174 27.3853 76.8174 26.592V26.55C76.8174 25.7287 76.3647 25.318 75.4594 25.318H74.3954V27.782H75.4594ZM85.0184 25.416V29H83.3244V21.678H85.0184V24.926L87.6364 21.678H89.4844L86.6424 25.066L89.7224 29H87.7624L85.0184 25.416ZM92.6662 29.14C91.9476 29.14 91.3596 28.9627 90.9022 28.608C90.4449 28.244 90.2162 27.698 90.2162 26.97C90.2162 26.1673 90.5569 25.5793 91.2382 25.206C91.9289 24.8327 92.8389 24.646 93.9682 24.646H94.8782V24.268C94.8782 23.7547 94.7802 23.3813 94.5842 23.148C94.3882 22.9147 94.0429 22.798 93.5482 22.798C92.7176 22.798 92.2509 23.1807 92.1482 23.946H90.5102C90.5849 23.134 90.9069 22.5273 91.4762 22.126C92.0456 21.7247 92.7689 21.524 93.6462 21.524C95.5969 21.524 96.5722 22.4153 96.5722 24.198V29H94.9062V28.104C94.3649 28.7947 93.6182 29.14 92.6662 29.14ZM93.0722 27.922C93.6136 27.922 94.0476 27.7913 94.3742 27.53C94.7102 27.2687 94.8782 26.9047 94.8782 26.438V25.71H94.0102C92.6009 25.71 91.8962 26.1067 91.8962 26.9C91.8962 27.5813 92.2882 27.922 93.0722 27.922ZM103.92 22.938H101.68V29H99.9855V22.938H97.7455V21.678H103.92V22.938ZM108.255 29.14C107.154 29.14 106.258 28.804 105.567 28.132C104.886 27.46 104.545 26.5547 104.545 25.416V25.304C104.545 24.184 104.886 23.274 105.567 22.574C106.258 21.874 107.131 21.524 108.185 21.524C109.175 21.524 109.996 21.832 110.649 22.448C111.312 23.064 111.643 23.988 111.643 25.22V25.71H106.281C106.309 26.41 106.491 26.9467 106.827 27.32C107.173 27.6933 107.663 27.88 108.297 27.88C109.287 27.88 109.847 27.5067 109.977 26.76H111.615C111.494 27.5347 111.139 28.1273 110.551 28.538C109.973 28.9393 109.207 29.14 108.255 29.14ZM109.963 24.576C109.87 23.3627 109.277 22.756 108.185 22.756C107.681 22.756 107.261 22.9193 106.925 23.246C106.599 23.5633 106.393 24.0067 106.309 24.576H109.963ZM114.85 22.938V29H113.156V21.678H118.042V22.938H114.85ZM122.462 27.824C123.096 27.824 123.591 27.6093 123.946 27.18C124.3 26.7413 124.478 26.144 124.478 25.388V25.29C124.478 24.534 124.3 23.9413 123.946 23.512C123.591 23.0733 123.096 22.854 122.462 22.854C121.827 22.854 121.328 23.0687 120.964 23.498C120.609 23.9273 120.432 24.52 120.432 25.276V25.388C120.432 26.144 120.609 26.7413 120.964 27.18C121.318 27.6093 121.818 27.824 122.462 27.824ZM125.15 28.104C124.44 28.7947 123.54 29.14 122.448 29.14C121.356 29.14 120.455 28.7993 119.746 28.118C119.046 27.4273 118.696 26.5267 118.696 25.416V25.304C118.696 24.184 119.05 23.274 119.76 22.574C120.469 21.874 121.37 21.524 122.462 21.524C123.544 21.524 124.44 21.8693 125.15 22.56C125.859 23.2507 126.214 24.1513 126.214 25.262V25.374C126.214 26.5033 125.859 27.4133 125.15 28.104ZM127.744 21.678H129.438V22.854C129.653 22.4807 129.975 22.168 130.404 21.916C130.843 21.6547 131.319 21.524 131.832 21.524C132.775 21.524 133.55 21.86 134.156 22.532C134.772 23.1947 135.08 24.1 135.08 25.248V25.36C135.08 26.5173 134.777 27.4367 134.17 28.118C133.573 28.7993 132.794 29.14 131.832 29.14C131.272 29.14 130.782 29.0233 130.362 28.79C129.952 28.5473 129.644 28.2347 129.438 27.852V31.506H127.744V21.678ZM131.412 27.796C132.038 27.796 132.514 27.5907 132.84 27.18C133.176 26.7693 133.344 26.172 133.344 25.388V25.276C133.344 24.492 133.162 23.8947 132.798 23.484C132.444 23.064 131.977 22.854 131.398 22.854C130.782 22.854 130.292 23.0593 129.928 23.47C129.564 23.8807 129.382 24.4827 129.382 25.276V25.388C129.382 26.1813 129.56 26.7833 129.914 27.194C130.278 27.5953 130.778 27.796 131.412 27.796ZM136.604 29V21.678H138.298V26.858L141.462 21.678H143.142V29H141.462V23.82L138.298 29H136.604ZM145.094 29V21.678H146.788V26.858L149.952 21.678H151.632V29H149.952V23.82L146.788 29H145.094Z" fill="white"/>
</svg>
