<svg width="285" height="50" viewBox="0 0 285 50" fill="none" xmlns="http://www.w3.org/2000/svg">
<rect width="285" height="50" fill="#3AB463"/>
<path d="M77.5718 18.99H81.1558C83.3398 18.99 84.4318 19.858 84.4318 21.594V21.65C84.4318 22.742 83.9045 23.4513 82.8498 23.778C83.5312 23.9273 84.0352 24.1933 84.3618 24.576C84.6885 24.9493 84.8518 25.472 84.8518 26.144V26.2C84.8518 27.124 84.5578 27.824 83.9698 28.3C83.3818 28.7667 82.5325 29 81.4218 29H77.5718V18.99ZM81.1978 27.67C82.4112 27.67 83.0178 27.138 83.0178 26.074V26.018C83.0178 25.486 82.8638 25.094 82.5558 24.842C82.2478 24.59 81.7532 24.464 81.0718 24.464H79.3918V27.67H81.1978ZM80.9318 23.204C81.5385 23.204 81.9725 23.0873 82.2338 22.854C82.5045 22.6207 82.6398 22.2473 82.6398 21.734V21.678C82.6398 21.202 82.4998 20.8567 82.2198 20.642C81.9398 20.4273 81.5012 20.32 80.9038 20.32H79.3918V23.204H80.9318ZM93.0076 21.678H94.7016V29H93.0076V21.678ZM86.4416 21.678H88.1356V24.086H89.3816C90.2309 24.086 90.9123 24.2913 91.4256 24.702C91.9389 25.1127 92.1956 25.7193 92.1956 26.522V26.564C92.1956 27.3573 91.9389 27.964 91.4256 28.384C90.9216 28.7947 90.2263 29 89.3396 29H86.4416V21.678ZM89.1436 27.768C89.6103 27.768 89.9509 27.6747 90.1656 27.488C90.3896 27.292 90.5016 26.9793 90.5016 26.55V26.508C90.5016 25.7147 90.0489 25.318 89.1436 25.318H88.1356V27.768H89.1436ZM100.055 29.14C98.8882 29.14 97.9688 28.7713 97.2968 28.034C96.6342 27.2873 96.3028 26.1673 96.3028 24.674V24.156C96.3028 20.4227 97.7168 18.486 100.545 18.346L100.993 18.332C102.104 18.276 102.827 18.1873 103.163 18.066V19.396C102.724 19.5827 101.992 19.704 100.965 19.76L100.601 19.788C99.6208 19.844 98.8975 20.1613 98.4308 20.74C97.9735 21.3187 97.6982 22.154 97.6048 23.246H97.6748C98.2255 22.1727 99.1448 21.636 100.433 21.636C101.441 21.636 102.258 21.9813 102.883 22.672C103.508 23.3533 103.821 24.226 103.821 25.29V25.374C103.821 26.522 103.466 27.4367 102.757 28.118C102.048 28.7993 101.147 29.14 100.055 29.14ZM98.5708 27.194C98.9348 27.614 99.4342 27.824 100.069 27.824C100.704 27.824 101.198 27.614 101.553 27.194C101.908 26.7647 102.085 26.1627 102.085 25.388V25.332C102.085 24.576 101.917 23.9927 101.581 23.582C101.254 23.1713 100.774 22.966 100.139 22.966C99.4855 22.966 98.9722 23.1807 98.5988 23.61C98.2255 24.03 98.0388 24.618 98.0388 25.374V25.444C98.0388 26.1813 98.2162 26.7647 98.5708 27.194ZM105.35 21.678H107.044V22.854C107.258 22.4807 107.58 22.168 108.01 21.916C108.448 21.6547 108.924 21.524 109.438 21.524C110.38 21.524 111.155 21.86 111.762 22.532C112.378 23.1947 112.686 24.1 112.686 25.248V25.36C112.686 26.5173 112.382 27.4367 111.776 28.118C111.178 28.7993 110.399 29.14 109.438 29.14C108.878 29.14 108.388 29.0233 107.968 28.79C107.557 28.5473 107.249 28.2347 107.044 27.852V31.506H105.35V21.678ZM109.018 27.796C109.643 27.796 110.119 27.5907 110.446 27.18C110.782 26.7693 110.95 26.172 110.95 25.388V25.276C110.95 24.492 110.768 23.8947 110.404 23.484C110.049 23.064 109.582 22.854 109.004 22.854C108.388 22.854 107.898 23.0593 107.534 23.47C107.17 23.8807 106.988 24.4827 106.988 25.276V25.388C106.988 26.1813 107.165 26.7833 107.52 27.194C107.884 27.5953 108.383 27.796 109.018 27.796ZM116.127 29.14C115.409 29.14 114.821 28.9627 114.363 28.608C113.906 28.244 113.677 27.698 113.677 26.97C113.677 26.1673 114.018 25.5793 114.699 25.206C115.39 24.8327 116.3 24.646 117.429 24.646H118.339V24.268C118.339 23.7547 118.241 23.3813 118.045 23.148C117.849 22.9147 117.504 22.798 117.009 22.798C116.179 22.798 115.712 23.1807 115.609 23.946H113.971C114.046 23.134 114.368 22.5273 114.937 22.126C115.507 21.7247 116.23 21.524 117.107 21.524C119.058 21.524 120.033 22.4153 120.033 24.198V29H118.367V28.104C117.826 28.7947 117.079 29.14 116.127 29.14ZM116.533 27.922C117.075 27.922 117.509 27.7913 117.835 27.53C118.171 27.2687 118.339 26.9047 118.339 26.438V25.71H117.471C116.062 25.71 115.357 26.1067 115.357 26.9C115.357 27.5813 115.749 27.922 116.533 27.922ZM127.38 22.938H125.14V29H123.446V22.938H121.206V21.678H127.38V22.938ZM128.701 21.678H130.395V24.086H131.711C132.561 24.086 133.242 24.3007 133.755 24.73C134.269 25.1593 134.525 25.7707 134.525 26.564V26.606C134.525 27.4087 134.273 28.0107 133.769 28.412C133.265 28.804 132.565 29 131.669 29H128.701V21.678ZM131.459 27.782C132.365 27.782 132.817 27.3853 132.817 26.592V26.55C132.817 25.7287 132.365 25.318 131.459 25.318H130.395V27.782H131.459ZM141.018 25.416V29H139.324V21.678H141.018V24.926L143.636 21.678H145.484L142.642 25.066L145.722 29H143.762L141.018 25.416ZM148.666 29.14C147.948 29.14 147.36 28.9627 146.902 28.608C146.445 28.244 146.216 27.698 146.216 26.97C146.216 26.1673 146.557 25.5793 147.238 25.206C147.929 24.8327 148.839 24.646 149.968 24.646H150.878V24.268C150.878 23.7547 150.78 23.3813 150.584 23.148C150.388 22.9147 150.043 22.798 149.548 22.798C148.718 22.798 148.251 23.1807 148.148 23.946H146.51C146.585 23.134 146.907 22.5273 147.476 22.126C148.046 21.7247 148.769 21.524 149.646 21.524C151.597 21.524 152.572 22.4153 152.572 24.198V29H150.906V28.104C150.365 28.7947 149.618 29.14 148.666 29.14ZM149.072 27.922C149.614 27.922 150.048 27.7913 150.374 27.53C150.71 27.2687 150.878 26.9047 150.878 26.438V25.71H150.01C148.601 25.71 147.896 26.1067 147.896 26.9C147.896 27.5813 148.288 27.922 149.072 27.922ZM159.92 22.938H157.68V29H155.986V22.938H153.746V21.678H159.92V22.938ZM164.255 29.14C163.154 29.14 162.258 28.804 161.567 28.132C160.886 27.46 160.545 26.5547 160.545 25.416V25.304C160.545 24.184 160.886 23.274 161.567 22.574C162.258 21.874 163.131 21.524 164.185 21.524C165.175 21.524 165.996 21.832 166.649 22.448C167.312 23.064 167.643 23.988 167.643 25.22V25.71H162.281C162.309 26.41 162.491 26.9467 162.827 27.32C163.173 27.6933 163.663 27.88 164.297 27.88C165.287 27.88 165.847 27.5067 165.977 26.76H167.615C167.494 27.5347 167.139 28.1273 166.551 28.538C165.973 28.9393 165.207 29.14 164.255 29.14ZM165.963 24.576C165.87 23.3627 165.277 22.756 164.185 22.756C163.681 22.756 163.261 22.9193 162.925 23.246C162.599 23.5633 162.393 24.0067 162.309 24.576H165.963ZM170.85 22.938V29H169.156V21.678H174.042V22.938H170.85ZM178.462 27.824C179.096 27.824 179.591 27.6093 179.946 27.18C180.3 26.7413 180.478 26.144 180.478 25.388V25.29C180.478 24.534 180.3 23.9413 179.946 23.512C179.591 23.0733 179.096 22.854 178.462 22.854C177.827 22.854 177.328 23.0687 176.964 23.498C176.609 23.9273 176.432 24.52 176.432 25.276V25.388C176.432 26.144 176.609 26.7413 176.964 27.18C177.318 27.6093 177.818 27.824 178.462 27.824ZM181.15 28.104C180.44 28.7947 179.54 29.14 178.448 29.14C177.356 29.14 176.455 28.7993 175.746 28.118C175.046 27.4273 174.696 26.5267 174.696 25.416V25.304C174.696 24.184 175.05 23.274 175.76 22.574C176.469 21.874 177.37 21.524 178.462 21.524C179.544 21.524 180.44 21.8693 181.15 22.56C181.859 23.2507 182.214 24.1513 182.214 25.262V25.374C182.214 26.5033 181.859 27.4133 181.15 28.104ZM183.744 21.678H185.438V22.854C185.653 22.4807 185.975 22.168 186.404 21.916C186.843 21.6547 187.319 21.524 187.832 21.524C188.775 21.524 189.55 21.86 190.156 22.532C190.772 23.1947 191.08 24.1 191.08 25.248V25.36C191.08 26.5173 190.777 27.4367 190.17 28.118C189.573 28.7993 188.794 29.14 187.832 29.14C187.272 29.14 186.782 29.0233 186.362 28.79C185.952 28.5473 185.644 28.2347 185.438 27.852V31.506H183.744V21.678ZM187.412 27.796C188.038 27.796 188.514 27.5907 188.84 27.18C189.176 26.7693 189.344 26.172 189.344 25.388V25.276C189.344 24.492 189.162 23.8947 188.798 23.484C188.444 23.064 187.977 22.854 187.398 22.854C186.782 22.854 186.292 23.0593 185.928 23.47C185.564 23.8807 185.382 24.4827 185.382 25.276V25.388C185.382 26.1813 185.56 26.7833 185.914 27.194C186.278 27.5953 186.778 27.796 187.412 27.796ZM192.604 29V21.678H194.298V26.858L197.462 21.678H199.142V29H197.462V23.82L194.298 29H192.604ZM201.094 29V21.678H202.788V26.858L205.952 21.678H207.632V29H205.952V23.82L202.788 29H201.094Z" fill="white"/>
</svg>
