<svg width="26" height="26" viewBox="0 0 26 26" fill="none" xmlns="http://www.w3.org/2000/svg">
<circle cx="12.5455" cy="12.5455" r="12.5455" fill="white"/>
<path d="M18.1909 8.66809C18.1909 7.7288 17.3621 6.90002 16.4228 6.90002H9.29528C8.356 6.90002 7.52722 7.7288 7.52722 8.66809V15.7956C7.52722 16.7349 8.356 17.5637 9.29528 17.5637H12.8867V13.5303H11.5606V11.7622H12.8867V11.0439C12.8867 9.82838 13.7707 8.77859 14.8757 8.77859H16.3123V10.5467H14.8757C14.71 10.5467 14.5442 10.7124 14.5442 11.0439V11.7622H16.3123V13.5303H14.5442V17.5637H16.4228C17.3621 17.5637 18.1909 16.7349 18.1909 15.7956V8.66809Z" fill="#282B3D"/>
</svg>
