<svg width="30" height="30" viewBox="0 0 30 30" fill="none" xmlns="http://www.w3.org/2000/svg">
<circle cx="15" cy="15" r="15" fill="white"/>
<g clip-path="url(#clip0_27_3492)">
<path d="M14.9999 8.25002C17.0376 8.25002 17.2919 8.25752 18.0914 8.29502C18.8901 8.33252 19.4339 8.45777 19.9124 8.64377C20.4074 8.83427 20.8244 9.09227 21.2414 9.50852C21.6227 9.88344 21.9178 10.337 22.1061 10.8375C22.2914 11.3153 22.4174 11.8598 22.4549 12.6585C22.4901 13.458 22.4999 13.7123 22.4999 15.75C22.4999 17.7878 22.4924 18.042 22.4549 18.8415C22.4174 19.6403 22.2914 20.184 22.1061 20.6625C21.9184 21.1633 21.6232 21.617 21.2414 21.9915C20.8663 22.3728 20.4129 22.6678 19.9124 22.8563C19.4346 23.0415 18.8901 23.1675 18.0914 23.205C17.2919 23.2403 17.0376 23.25 14.9999 23.25C12.9621 23.25 12.7079 23.2425 11.9084 23.205C11.1096 23.1675 10.5659 23.0415 10.0874 22.8563C9.58662 22.6684 9.13302 22.3732 8.75838 21.9915C8.37693 21.6167 8.08183 21.1631 7.89363 20.6625C7.70763 20.1848 7.58238 19.6403 7.54488 18.8415C7.50963 18.042 7.49988 17.7878 7.49988 15.75C7.49988 13.7123 7.50738 13.458 7.54488 12.6585C7.58238 11.859 7.70763 11.316 7.89363 10.8375C8.0813 10.3366 8.37648 9.88301 8.75838 9.50852C9.13313 9.12694 9.5867 8.83181 10.0874 8.64377C10.5659 8.45777 11.1089 8.33252 11.9084 8.29502C12.7079 8.25977 12.9621 8.25002 14.9999 8.25002ZM14.9999 12C14.0053 12 13.0515 12.3951 12.3482 13.0984C11.645 13.8016 11.2499 14.7555 11.2499 15.75C11.2499 16.7446 11.645 17.6984 12.3482 18.4017C13.0515 19.1049 14.0053 19.5 14.9999 19.5C15.9944 19.5 16.9483 19.1049 17.6515 18.4017C18.3548 17.6984 18.7499 16.7446 18.7499 15.75C18.7499 14.7555 18.3548 13.8016 17.6515 13.0984C16.9483 12.3951 15.9944 12 14.9999 12ZM19.8749 11.8125C19.8749 11.5639 19.7761 11.3254 19.6003 11.1496C19.4245 10.9738 19.186 10.875 18.9374 10.875C18.6887 10.875 18.4503 10.9738 18.2745 11.1496C18.0986 11.3254 17.9999 11.5639 17.9999 11.8125C17.9999 12.0612 18.0986 12.2996 18.2745 12.4754C18.4503 12.6512 18.6887 12.75 18.9374 12.75C19.186 12.75 19.4245 12.6512 19.6003 12.4754C19.7761 12.2996 19.8749 12.0612 19.8749 11.8125ZM14.9999 13.5C15.5966 13.5 16.1689 13.7371 16.5909 14.159C17.0128 14.581 17.2499 15.1533 17.2499 15.75C17.2499 16.3468 17.0128 16.919 16.5909 17.341C16.1689 17.763 15.5966 18 14.9999 18C14.4031 18 13.8308 17.763 13.4089 17.341C12.9869 16.919 12.7499 16.3468 12.7499 15.75C12.7499 15.1533 12.9869 14.581 13.4089 14.159C13.8308 13.7371 14.4031 13.5 14.9999 13.5Z" fill="#282B3D"/>
</g>
<defs>
<clipPath id="clip0_27_3492">
<rect width="18" height="18" fill="white" transform="translate(6 6.75)"/>
</clipPath>
</defs>
</svg>
