<svg width="26" height="26" viewBox="0 0 26 26" fill="none" xmlns="http://www.w3.org/2000/svg">
<circle cx="13" cy="12.5455" r="12.5455" fill="white"/>
<path d="M12.9999 6.90002C14.7042 6.90002 14.9168 6.9063 15.5855 6.93766C16.2536 6.96902 16.7083 7.07378 17.1085 7.22934C17.5225 7.38867 17.8713 7.60445 18.2201 7.95259C18.539 8.26616 18.7858 8.64547 18.9433 9.06412C19.0982 9.46369 19.2036 9.91909 19.235 10.5871C19.2645 11.2558 19.2726 11.4685 19.2726 13.1728C19.2726 14.8771 19.2664 15.0897 19.235 15.7584C19.2036 16.4264 19.0982 16.8812 18.9433 17.2814C18.7863 17.7003 18.5394 18.0797 18.2201 18.3929C17.9064 18.7118 17.5271 18.9586 17.1085 19.1162C16.709 19.2711 16.2536 19.3765 15.5855 19.4078C14.9168 19.4373 14.7042 19.4455 12.9999 19.4455C11.2956 19.4455 11.083 19.4392 10.4143 19.4078C9.74624 19.3765 9.29146 19.2711 8.89126 19.1162C8.47245 18.959 8.09308 18.7122 7.77974 18.3929C7.46071 18.0794 7.21389 17.7001 7.05649 17.2814C6.90093 16.8818 6.79617 16.4264 6.76481 15.7584C6.73533 15.0897 6.72717 14.8771 6.72717 13.1728C6.72717 11.4685 6.73345 11.2558 6.76481 10.5871C6.79617 9.91846 6.90093 9.46432 7.05649 9.06412C7.21346 8.64521 7.46033 8.2658 7.77974 7.95259C8.09317 7.63345 8.47251 7.38662 8.89126 7.22934C9.29146 7.07378 9.74561 6.96902 10.4143 6.93766C11.083 6.90818 11.2956 6.90002 12.9999 6.90002ZM12.9999 10.0364C12.1681 10.0364 11.3703 10.3668 10.7822 10.955C10.194 11.5432 9.86354 12.3409 9.86354 13.1728C9.86354 14.0046 10.194 14.8023 10.7822 15.3905C11.3703 15.9787 12.1681 16.3091 12.9999 16.3091C13.8317 16.3091 14.6295 15.9787 15.2176 15.3905C15.8058 14.8023 16.1363 14.0046 16.1363 13.1728C16.1363 12.3409 15.8058 11.5432 15.2176 10.955C14.6295 10.3668 13.8317 10.0364 12.9999 10.0364ZM17.0772 9.87957C17.0772 9.67162 16.9946 9.47218 16.8475 9.32513C16.7005 9.17809 16.501 9.09548 16.2931 9.09548C16.0851 9.09548 15.8857 9.17809 15.7386 9.32513C15.5916 9.47218 15.509 9.67162 15.509 9.87957C15.509 10.0875 15.5916 10.287 15.7386 10.434C15.8857 10.5811 16.0851 10.6637 16.2931 10.6637C16.501 10.6637 16.7005 10.5811 16.8475 10.434C16.9946 10.287 17.0772 10.0875 17.0772 9.87957ZM12.9999 11.2909C13.499 11.2909 13.9776 11.4892 14.3305 11.8421C14.6835 12.195 14.8817 12.6737 14.8817 13.1728C14.8817 13.6718 14.6835 14.1505 14.3305 14.5034C13.9776 14.8563 13.499 15.0546 12.9999 15.0546C12.5008 15.0546 12.0222 14.8563 11.6693 14.5034C11.3163 14.1505 11.1181 13.6718 11.1181 13.1728C11.1181 12.6737 11.3163 12.195 11.6693 11.8421C12.0222 11.4892 12.5008 11.2909 12.9999 11.2909Z" fill="#282B3D"/>
</svg>
