<svg width="148" height="30" viewBox="0 0 148 30" fill="none" xmlns="http://www.w3.org/2000/svg">
<path d="M0 26.3529V0.764706V0H26.5216V5.11765H21.0752L10.064 26.3529H0ZM1.6576 24.7059H9.1168L20.0688 3.47059H24.864V1.64706H1.6576V24.7059Z" fill="white"/>
<path d="M3.67029 29.8824V24.7059H9.11669L20.0095 3.47062H30.1327V28.2941V29.0589V29.8824H4.55829H3.67029ZM29.3039 29.0589V28.2353V29.0589ZM6.21589 28.2353H28.4751V5.11768H21.0159L10.1231 26.2941H5.26869V28.2353H6.21589Z" fill="white"/>
<path d="M3.67029 29.8824V24.7059H9.11669L20.0095 3.47062H30.1327V28.2941V29.0589V29.8824H4.55829H3.67029ZM29.3039 29.0589V28.2353V29.0589ZM6.21589 28.2353H28.4751V5.11768H21.0159L10.1231 26.2941H5.26869V28.2353H6.21589Z" fill="white"/>
<path d="M34.5137 4.52952H40.9665V6.05893H36.2897V8.11775H38.7761C39.4865 8.11775 40.3745 8.2354 41.0849 8.82364C41.6177 9.29422 41.9729 10.0001 41.9729 10.8236C41.9729 11.4119 41.7953 12.0001 41.4401 12.4707C40.7297 13.4707 39.6049 13.5883 38.8353 13.5883H34.5729V4.52952H34.5137ZM36.2897 12.0589H38.4209C39.8417 12.0589 40.1377 11.4119 40.1377 10.8825C40.1377 10.2942 39.8417 9.64716 38.4801 9.64716H36.3489V12.0589H36.2897Z" fill="white"/>
<path d="M49.4322 11.706H45.7618L44.933 13.5883H42.9794L46.9458 4.29419H48.3074L52.1554 13.5883H50.261L49.4322 11.706ZM48.8994 10.2354L47.597 6.94125L46.2946 10.2354H48.8994Z" fill="white"/>
<path d="M55.6479 8.05893H59.4959V4.52952H61.2719V13.5883H59.4959V9.52952H55.6479V13.5883H53.8719V4.52952H55.6479V8.05893Z" fill="white"/>
<path d="M64.8833 8.35305L68.4353 4.52952H70.5073L66.9553 8.35305L70.6849 13.5883H68.3169L65.5937 9.64716L64.8833 10.2942V13.5295H63.1073V4.52952H64.8833V8.35305Z" fill="white"/>
<path d="M94.6017 23.2355L98.1537 19.412H100.226L96.6737 23.2355L100.403 28.4708H98.0353L95.3121 24.5296L94.6017 25.1767V28.412H92.8257V19.3532H94.6017V23.2355Z" fill="white"/>
<path d="M34.5137 19.412H36.2897V26.9414H40.1377V19.412H41.9137V26.9414H43.0385V30.0002H41.4401V28.4708H34.5137V19.412Z" fill="white"/>
<path d="M51.8002 20.9414H46.709V22.9414H51.2082V24.4708H46.709V26.9414H51.8002V28.4708H44.933V19.412H51.8002V20.9414Z" fill="white"/>
<path d="M118.104 20.9414H113.013V22.9414H117.571V24.4708H113.013V26.9414H118.104V28.4708H111.237V19.412H118.104V20.9414Z" fill="white"/>
<path d="M56.1217 22.9414H59.9697V19.412H61.7457V28.4708H59.9697V24.412H56.1217V28.4708H54.3457V19.412H56.1217V22.9414Z" fill="white"/>
<path d="M68.376 20.9414V28.4708H66.6V20.9414H63.64V19.412H71.2176V20.9414H68.376Z" fill="white"/>
<path d="M145.158 20.9414V28.4708H143.382V20.9414H140.422V19.412H148V20.9414H145.158Z" fill="white"/>
<path d="M77.3153 19.412C78.3217 19.412 79.0321 19.5296 79.7425 20.1178C80.4529 20.7649 80.6897 21.6473 80.6897 22.2943C80.6897 22.6473 80.6305 23.6472 79.9201 24.2943C79.3873 24.8237 78.6769 25.1178 77.6113 25.1178H75.0657V28.4708H73.2897V19.412H77.3153ZM75.0065 23.5884H77.1377C77.4929 23.5884 77.9073 23.5884 78.3217 23.2943C78.6769 23.059 78.7953 22.6472 78.7953 22.2355C78.7953 21.7061 78.5585 21.412 78.2625 21.1767C77.9073 20.9414 77.4337 20.8825 77.0193 20.8825H75.0065V23.5884Z" fill="white"/>
<path d="M106.323 19.412C107.33 19.412 108.04 19.5296 108.75 20.1178C109.52 20.7649 109.698 21.6473 109.698 22.2943C109.698 22.6473 109.638 23.6472 108.928 24.2943C108.395 24.8237 107.685 25.1178 106.619 25.1178H104.074V28.4708H102.298V19.412H106.323ZM104.014 23.5884H106.146C106.501 23.5884 106.915 23.5884 107.33 23.2943C107.685 23.059 107.803 22.6472 107.803 22.2355C107.803 21.7061 107.566 21.412 107.27 21.1767C106.915 20.9414 106.442 20.8825 106.027 20.8825H104.014V23.5884Z" fill="white"/>
<path d="M91.5231 23.9413C91.5231 26.706 89.5103 28.706 86.6687 28.706C83.7679 28.706 81.8143 26.706 81.8143 23.9413C81.8143 21.1766 83.8271 19.1766 86.6687 19.1766C89.5103 19.2354 91.5231 21.1766 91.5231 23.9413ZM89.6879 23.9413C89.6879 22.1178 88.4447 20.8237 86.6687 20.8237C84.8927 20.8237 83.6495 22.1178 83.6495 23.9413C83.6495 25.7649 84.8927 27.059 86.6687 27.059C88.3855 27.1178 89.6879 25.8237 89.6879 23.9413Z" fill="white"/>
<path d="M127.872 19.412V26.9414H128.819V30.0002H127.162V28.4708H121.123V30.0002H119.466V26.9414C120.117 26.9414 120.65 26.412 120.946 25.7061C121.123 25.2355 121.301 24.5884 121.301 23.2943V19.412H127.872ZM123.018 23.3531C123.018 24.7649 122.899 25.4708 122.722 25.8825C122.544 26.412 122.248 26.7061 122.011 26.9414H126.155V20.9414H123.077V23.3531H123.018Z" fill="white"/>
<path d="M132.253 19.4119V25.5295L137.285 19.2354H138.528V28.5295H136.752V22.3531L131.72 28.6472H130.477V19.4119H132.253Z" fill="white"/>
</svg>
