<svg width="26" height="26" viewBox="0 0 26 26" fill="none" xmlns="http://www.w3.org/2000/svg">
<circle cx="13.4545" cy="12.5455" r="12.5455" fill="white"/>
<path d="M19.6057 15.7541C19.6057 15.702 19.5537 15.702 19.5537 15.6499C19.3453 15.2333 18.8766 14.7125 18.2517 14.1397C17.9392 13.8793 17.783 13.671 17.6788 13.5668C17.5226 13.3585 17.5226 13.2023 17.5747 12.994C17.6268 12.8377 17.8351 12.5773 18.1996 12.1086C18.4079 11.8482 18.5121 11.692 18.6683 11.5358C19.4495 10.4942 19.814 9.81721 19.7099 9.50474L19.6578 9.45266C19.6057 9.40059 19.5536 9.34851 19.4495 9.34851C19.3453 9.29643 19.1891 9.29643 19.0329 9.34851H17.0539C17.0018 9.34851 17.0018 9.34851 16.8977 9.34851C16.8456 9.34851 16.7935 9.34851 16.7935 9.34851H16.7414H16.6894L16.6373 9.40058C16.5852 9.45266 16.5852 9.45266 16.5852 9.50474C16.3769 10.0776 16.1165 10.5463 15.8561 11.0671C15.6999 11.3275 15.5436 11.5879 15.3874 11.7962C15.2312 12.0045 15.127 12.1607 15.0229 12.2649C14.9187 12.369 14.8146 12.4211 14.7625 12.5253C14.7104 12.5773 14.6062 12.6294 14.6062 12.5773C14.5542 12.5773 14.5021 12.5773 14.5021 12.5253C14.45 12.4732 14.3979 12.4211 14.3459 12.369C14.2938 12.317 14.2938 12.2128 14.2417 12.1086C14.2417 12.0045 14.2417 11.9003 14.2417 11.8482C14.2417 11.7962 14.2417 11.6399 14.2417 11.5358C14.2417 11.3796 14.2417 11.2754 14.2417 11.2233C14.2417 11.0671 14.2417 10.8588 14.2417 10.6505C14.2417 10.4421 14.2417 10.2859 14.2417 10.1818C14.2417 10.0776 14.2417 9.92137 14.2417 9.81721C14.2417 9.66098 14.2417 9.55682 14.2417 9.50474C14.2417 9.45266 14.1896 9.34851 14.1896 9.29643C14.1375 9.24435 14.0855 9.19227 14.0334 9.14019C13.9813 9.08812 13.8772 9.08812 13.8251 9.03604C13.5647 8.98396 13.2522 8.93188 12.8877 8.93188C12.0544 8.93188 11.4816 8.98396 11.2733 9.08812C11.1691 9.1402 11.0649 9.19227 11.0129 9.29643C10.9087 9.40059 10.9087 9.45266 10.9608 9.45266C11.2212 9.50474 11.4295 9.60889 11.5336 9.76513L11.5857 9.86929C11.6378 9.92137 11.6378 10.0255 11.6899 10.1818C11.742 10.338 11.742 10.4942 11.742 10.7025C11.742 11.015 11.742 11.3275 11.742 11.5358C11.742 11.7962 11.6899 11.9524 11.6899 12.1086C11.6899 12.2649 11.6378 12.369 11.5857 12.4211C11.5336 12.5253 11.5336 12.5773 11.4816 12.5773C11.4816 12.5773 11.4816 12.6294 11.4295 12.6294C11.3774 12.6294 11.3253 12.6815 11.2212 12.6815C11.1691 12.6815 11.0649 12.6294 11.0129 12.5773C10.9087 12.5253 10.8046 12.4211 10.7525 12.317C10.6483 12.2128 10.5442 12.0566 10.44 11.8482C10.3358 11.6399 10.1796 11.4316 10.0755 11.1192L9.9713 10.9109C9.91923 10.8067 9.81507 10.5984 9.71091 10.338C9.60676 10.0776 9.5026 9.86929 9.39844 9.6089C9.34636 9.50474 9.29429 9.45266 9.24221 9.40058H9.19013C9.19013 9.40058 9.13805 9.34851 9.08597 9.34851C9.03389 9.34851 8.98182 9.29643 8.92974 9.29643H7.05493C6.84662 9.29643 6.74246 9.34851 6.69039 9.40058L6.63831 9.45266C6.63831 9.45266 6.63831 9.50474 6.63831 9.55682C6.63831 9.6089 6.63831 9.66097 6.69039 9.76513C6.95078 10.3901 7.26324 11.015 7.57571 11.6399C7.88818 12.2128 8.20065 12.7336 8.40896 13.0981C8.66935 13.4627 8.87766 13.8272 9.13805 14.1397C9.39844 14.4522 9.55467 14.6605 9.60675 14.7646C9.71091 14.8688 9.76298 14.9209 9.81506 14.9729L9.9713 15.1292C10.0755 15.2333 10.2317 15.3896 10.44 15.5458C10.6483 15.702 10.9087 15.8583 11.1691 16.0145C11.4295 16.1707 11.742 16.2749 12.0544 16.379C12.419 16.4832 12.7314 16.5353 13.0439 16.4832H13.8251C13.9813 16.4832 14.0855 16.4311 14.1896 16.327L14.2417 16.2749C14.2417 16.2228 14.2938 16.2228 14.2938 16.1707C14.2938 16.1186 14.2938 16.0666 14.2938 15.9624C14.2938 15.7541 14.2938 15.5979 14.3459 15.4416C14.3979 15.2854 14.3979 15.1812 14.45 15.0771C14.5021 14.9729 14.5542 14.9209 14.6062 14.8688C14.6583 14.8167 14.7104 14.7646 14.7104 14.7646H14.7625C14.8666 14.7125 15.0229 14.7646 15.127 14.8688C15.2833 14.9729 15.4395 15.1292 15.5436 15.2854C15.6478 15.4416 15.804 15.5979 16.0124 15.8062C16.2207 16.0145 16.3769 16.1707 16.4811 16.2228L16.6373 16.327C16.7414 16.379 16.8456 16.4311 17.0018 16.4832C17.1581 16.5353 17.2622 16.5353 17.3664 16.5353L19.137 16.4832C19.2933 16.4832 19.4495 16.4311 19.5537 16.379C19.6578 16.327 19.7099 16.2749 19.7099 16.1707C19.7099 16.1186 19.7099 16.0145 19.7099 15.9624C19.6057 15.8583 19.6057 15.8062 19.6057 15.7541Z" fill="#282B3D"/>
</svg>
